<?xml version="1.0" encoding="UTF-8" standalone="no"?>
<svg
   xmlns:dc="http://purl.org/dc/elements/1.1/"
   xmlns:cc="http://creativecommons.org/ns#"
   xmlns:rdf="http://www.w3.org/1999/02/22-rdf-syntax-ns#"
   xmlns:svg="http://www.w3.org/2000/svg"
   xmlns="http://www.w3.org/2000/svg"
   viewBox="0 0 285.41333 94.826668"
   height="94.826668"
   width="285.41333"
   xml:space="preserve"
   id="svg2"
   version="1.1"><metadata
     id="metadata8"><rdf:RDF><cc:Work
         rdf:about=""><dc:format>image/svg+xml</dc:format><dc:type
           rdf:resource="http://purl.org/dc/dcmitype/StillImage" /></cc:Work></rdf:RDF></metadata><defs
     id="defs6"><clipPath
       id="clipPath20"
       clipPathUnits="userSpaceOnUse"><path
         id="path18"
         d="M 0,0 H 2140.56 V 711 H 0 Z" /></clipPath></defs><g
     transform="matrix(1.3333333,0,0,-1.3333333,0,94.826667)"
     id="g10"><g
       transform="scale(0.1)"
       id="g12"><g
         id="g14"><g
           clip-path="url(#clipPath20)"
           id="g16"><path
             id="path22"
             style="fill:#ffffff;fill-opacity:1;fill-rule:nonzero;stroke:none"
             d="m 625.547,303.691 c -7.527,-51.035 -35.906,-131.211 -59.723,-32.07 0,0 49.774,19.336 61.949,65.789 0,0 6.52,-15.594 -1.656,-30.027 -0.664,-1.074 -0.359,-2.442 -0.57,-3.692 z M 406.992,189.629 c -12.914,8.086 -43.129,-1.348 -43.308,32.559 0,0 131.496,10.957 158.843,32.851 0,0 0,-137.324 -115.535,-65.41 z m 222.813,213.359 c -9.09,23.492 -21.528,44.688 -36.567,63.262 -102.199,105.211 -88.41,-0.043 -88.41,-0.043 C 521.582,358.316 416.344,433.012 416.344,433.012 247.906,529.27 278.828,185.527 278.828,185.527 c -29.211,18.907 -46.41,67.032 -46.41,67.032 -31.887,84.199 -46.773,33.964 -51.695,8.515 2.379,-9.57 5.328,-19.082 8.984,-28.535 36.191,-93.516 125.52,-150.8007 220.102,-150.8007 28.316,0 57.086,5.0976 85.129,15.9765 93.558,36.1912 150.824,125.5472 150.855,220.1562 0,28.305 -5.133,57.07 -15.988,85.117" /><path
             id="path24"
             style="fill:#ffffff;fill-opacity:1;fill-rule:nonzero;stroke:none"
             d="m 1009.21,219.492 c -12.905,-13.75 -28.823,-20.625 -47.71,-20.625 -19.508,0 -35.688,6.758 -48.539,20.274 -12.856,13.535 -19.277,31.25 -19.277,53.183 0,21.465 6.421,38.828 19.277,52.149 12.851,13.3 29.031,19.941 48.539,19.941 19.336,0 35.371,-6.758 48.07,-20.293 12.67,-13.516 19.02,-30.859 19.02,-52.031 0,-21.309 -6.47,-38.848 -19.38,-52.598 z m -34.78,182.074 c -14.828,0 -28.739,-2.816 -41.742,-8.402 -12.993,-5.59 -25.09,-13.969 -36.282,-25.16 v 122.43 H 834.961 V 148.516 h 61.445 v 26.074 c 12.102,-11.485 24.285,-19.766 36.516,-24.824 12.234,-5.059 25.457,-7.598 39.672,-7.598 31.896,0 59.486,12.363 82.756,37.09 23.28,24.707 34.92,55.43 34.92,92.168 0,38.066 -11.27,69.277 -33.77,93.617 -22.54,24.344 -49.9,36.523 -82.07,36.523" /><path
             id="path26"
             style="fill:#ffffff;fill-opacity:1;fill-rule:nonzero;stroke:none"
             d="m 1297.81,219.141 c -12.8,-13.516 -28.93,-20.274 -48.36,-20.274 -18.83,0 -34.69,6.875 -47.56,20.625 -12.89,13.75 -19.34,31.289 -19.34,52.598 0,21.172 6.33,38.515 18.99,52.031 12.67,13.535 28.55,20.293 47.67,20.293 19.59,0 35.8,-6.641 48.6,-19.941 12.79,-13.321 19.22,-30.684 19.22,-52.149 0,-21.933 -6.43,-39.648 -19.22,-53.183 z m 16.48,148.863 c -11.01,11.191 -23.03,19.57 -35.99,25.16 -12.99,5.586 -26.9,8.402 -41.66,8.402 -32.19,0 -59.5,-12.179 -82.02,-36.523 -22.48,-24.34 -33.73,-55.551 -33.73,-93.617 0,-36.738 11.64,-67.461 34.89,-92.168 23.24,-24.727 50.8,-37.09 82.63,-37.09 14.22,0 27.39,2.539 39.53,7.598 12.17,5.058 24.26,13.339 36.35,24.824 v -26.074 h 61.9 v 246.703 h -61.9 v -27.215" /><path
             id="path28"
             style="fill:#ffffff;fill-opacity:1;fill-rule:nonzero;stroke:none"
             d="m 1531.75,298.164 -22.69,11.328 c -9.83,4.844 -15.98,8.653 -18.48,11.465 -2.48,2.793 -3.75,5.859 -3.75,9.172 0,4.394 1.97,8.055 5.92,10.992 3.92,2.961 9.35,4.438 16.31,4.438 12.71,0 26.85,-7.715 42.42,-23.137 l 38.3,38.332 c -9.8,13.144 -21.82,23.23 -35.94,30.266 -14.14,7.015 -29.22,10.546 -45.23,10.546 -23.44,0 -42.66,-6.918 -57.7,-20.75 -15.04,-13.839 -22.56,-30.507 -22.56,-49.996 0,-30.234 19.95,-55.41 59.85,-75.508 l 20.86,-10.429 c 17.99,-9.063 26.99,-18.36 26.99,-27.891 0,-5.137 -2.5,-9.668 -7.5,-13.594 -4.98,-3.945 -11.54,-5.898 -19.71,-5.898 -7.56,0 -16.21,2.617 -25.97,7.832 -9.75,5.195 -18.25,12.051 -25.49,20.508 l -38.09,-41.485 c 21.45,-28.125 50.16,-42.187 86.15,-42.187 27.06,0 48.64,7.344 64.73,21.992 16.09,14.668 24.14,32.949 24.14,54.863 0,16.485 -4.45,30.86 -13.36,43.106 -8.92,12.226 -25.33,24.258 -49.2,36.035" /><path
             id="path30"
             style="fill:#ffffff;fill-opacity:1;fill-rule:nonzero;stroke:none"
             d="m 1769.14,401.566 c -12.54,0 -24.95,-2.613 -37.19,-7.832 -12.25,-5.218 -24.42,-13.039 -36.51,-23.464 V 490.434 H 1634 V 148.516 h 61.44 v 99.082 c 0,26.445 0.9,43.379 2.72,50.8 3.5,14.356 9.71,25.684 18.73,34.004 8.98,8.301 19.75,12.461 32.28,12.461 9.69,0 17.84,-2.48 24.38,-7.468 6.58,-4.993 11.25,-12.551 13.95,-22.668 2.73,-10.137 4.08,-29.493 4.08,-58.067 V 148.516 h 60.99 v 163.027 c 0,28.418 -7.16,49.957 -21.54,64.617 -16.78,16.93 -37.42,25.406 -61.89,25.406" /><path
             id="path32"
             style="fill:#ffffff;fill-opacity:1;fill-rule:nonzero;stroke:none"
             d="m 2058.88,219.941 c -12.85,-13.457 -28.98,-20.195 -48.36,-20.195 -19.39,0 -35.39,6.66 -48.04,19.961 -12.64,13.301 -18.97,30.684 -18.97,52.168 0,20.859 6.39,37.969 19.2,51.328 12.79,13.399 28.79,20.086 48.03,20.086 19.68,0 35.84,-6.617 48.49,-19.832 12.66,-13.242 18.97,-30.43 18.97,-51.582 0,-21.172 -6.45,-38.477 -19.32,-51.934 z m 64.44,116.758 c -11.49,19.961 -27.47,35.762 -47.95,47.403 -20.49,11.636 -42.37,17.464 -65.65,17.464 -32.19,0 -60.68,-11.199 -85.47,-33.562 -28.28,-25.699 -42.4,-57.809 -42.4,-96.363 0,-35.977 12.5,-66.543 37.5,-91.719 25.04,-25.156 55.22,-37.754 90.61,-37.754 24.04,0 46.01,5.723 65.95,17.129 19.98,11.406 35.75,27.226 47.29,47.5 11.56,20.254 17.36,42.012 17.36,65.293 0,23.125 -5.76,44.668 -17.24,64.609" /><path
             id="path34"
             style="fill:#ffffff;fill-opacity:1;fill-rule:nonzero;stroke:none"
             d="M 509.918,58.5352 C 476.77,45.7031 442.582,39.5898 408.98,39.5898 c -0.015,0 -0.031,0 -0.031,0 -0.011,0 -0.011,0 -0.027,0 -112.199,0 -217.992,67.9882 -260.973,178.8482 -12.844,33.164 -18.957,67.363 -18.957,100.996 -0.012,112.191 67.973,218.023 178.875,260.992 33.129,12.84 67.321,18.953 100.918,18.953 0.016,0 0.027,0 0.043,0 0.035,0 0.051,0 0.078,0 112.149,0 217.949,-67.992 260.93,-178.836 v -0.016 C 682.676,387.379 688.77,353.188 688.77,319.59 688.785,207.383 620.816,101.523 509.918,58.5352 Z M 83.9688,493.746 c 0,0 -41.4102,0.164 -45.0547,40.723 -3.6446,40.57 3.3437,94.398 3.3437,94.398 0,0 1.6836,17.133 12.2695,27.766 v 0.012 c 10.625,10.566 27.7735,12.238 27.7735,12.238 0,0 33.9452,4.418 68.2502,4.418 8.883,0 17.793,-0.293 26.148,-1.043 40.559,-3.645 40.707,-45.09 40.707,-45.09 l 5.782,-47.758 c -8.071,-5.758 -15.852,-11.906 -23.348,-18.39 -0.332,4.113 -0.902,10.894 -1.36,13.093 -1.292,6.309 -1.019,18.528 -18.785,20.02 -17.793,1.48 -41.441,-1.969 -41.441,-1.969 0,0 -7.539,-0.84 -12.238,-5.754 v -0.008 c -4.7,-4.914 -5.493,-12.816 -5.493,-12.816 0,0 -3.316,-24.774 -1.855,-43.414 1.398,-18.625 19.598,-18.512 19.598,-18.512 l 14.062,-1.859 c -2.859,-3.86 -5.644,-7.797 -8.34,-11.805 -2.254,-3.348 -4.441,-6.742 -6.562,-10.16 z m 622.8042,-58.926 -0.703,1.805 -0.035,0.074 C 682.18,497.156 641.188,548.188 587.41,584.379 534.336,620.102 472.613,638.98 408.906,638.98 h -0.078 c -39.48,0 -78.246,-7.281 -115.277,-21.636 -12.02,-4.649 -23.641,-10 -34.867,-15.961 l -3.465,28.562 c -1.215,30.524 -21.739,75.243 -75.129,80.039 -8.883,0.789 -18.805,1.192 -29.539,1.192 -34.559,0 -68.1799,-4.11 -72.6955,-4.68 C 71.293,705.766 46.2461,701.82 27.8164,683.5 27.4688,683.16 27.1445,682.812 26.8281,682.473 9.19922,664.133 5.375,639.762 4.65234,633.301 3.91797,627.461 -2.63672,573.746 1.1875,531.078 5.99219,477.672 50.7031,457.152 81.2148,455.922 l 36.8082,-4.445 C 99.2188,410.148 89.3906,365.309 89.4062,319.414 89.3906,279.98 96.6758,241.191 111.035,204.121 134.789,142.871 176.055,91.1523 230.383,54.6094 283.434,18.8867 345.18,0 408.922,0 c 39.5,0 78.281,7.28516 115.297,21.6211 61.285,23.75 113.023,65.0391 149.574,119.3749 35.703,53.086 54.602,114.844 54.586,178.594 0,39.433 -7.289,78.203 -21.606,115.23" /><path
             id="path36"
             style="fill:#f79224;fill-opacity:1;fill-rule:nonzero;stroke:none"
             d="m 152.32,509.75 c 0,0 8.071,11.984 22.95,28.086 13.281,14.383 24.558,23.125 24.558,23.125 0,0 -0.109,6.008 -1.195,11.926 -2.285,12.523 -2.324,22.64 -29.141,21.675 -28.254,-1.015 -47.691,1.805 -49.859,-25.773 -1.996,-25.41 -3.078,-41.851 2.648,-49.375 6.504,-8.551 15.496,-7.828 21.434,-8.629 5.941,-0.808 8.605,-1.035 8.605,-1.035" /></g></g></g></g></svg>