<?xml version="1.0" encoding="UTF-8" standalone="no"?>
<svg
   xmlns:dc="http://purl.org/dc/elements/1.1/"
   xmlns:cc="http://creativecommons.org/ns#"
   xmlns:rdf="http://www.w3.org/1999/02/22-rdf-syntax-ns#"
   xmlns:svg="http://www.w3.org/2000/svg"
   xmlns="http://www.w3.org/2000/svg"
   viewBox="0 0 220.06667 225.32001"
   height="225.32001"
   width="220.06667"
   xml:space="preserve"
   id="svg2"
   version="1.1"><metadata
     id="metadata8"><rdf:RDF><cc:Work
         rdf:about=""><dc:format>image/svg+xml</dc:format><dc:type
           rdf:resource="http://purl.org/dc/dcmitype/StillImage" /></cc:Work></rdf:RDF></metadata><defs
     id="defs6"><clipPath
       id="clipPath20"
       clipPathUnits="userSpaceOnUse"><path
         id="path18"
         d="M 0,1689.91 V 0 h 1650.52 v 1689.91 z" /></clipPath></defs><g
     transform="matrix(1.3333333,0,0,-1.3333333,0,225.32)"
     id="g10"><g
       transform="scale(0.1)"
       id="g12"><g
         id="g14"><g
           clip-path="url(#clipPath20)"
           id="g16"><path
             id="path22"
             style="fill:#ffffff;fill-opacity:1;fill-rule:nonzero;stroke:none"
             d="m 1137.25,1015.58 c -12.45,-84.459 -59.41,-217.15 -98.82,-53.072 0,0 82.37,32.008 102.51,108.882 0,0 10.78,-25.83 -2.73,-49.72 -1.1,-1.76 -0.61,-4.02 -0.96,-6.09 z M 775.582,826.828 c -21.371,13.356 -71.367,-2.238 -71.672,53.867 0,0 217.61,18.141 262.871,54.387 0,0 0,-227.285 -191.199,-108.254 z M 1144.3,1179.9 c -15.04,38.87 -35.61,73.95 -60.51,104.69 -169.118,174.12 -146.306,-0.07 -146.306,-0.07 27.727,-178.55 -146.433,-54.93 -146.433,-54.93 C 512.312,1388.89 563.484,820.027 563.484,820.027 515.156,851.32 486.68,930.969 486.68,930.969 c -52.758,139.331 -77.403,56.211 -85.547,14.078 3.933,-15.824 8.816,-31.567 14.875,-47.211 59.883,-154.758 207.715,-249.555 364.234,-249.574 46.863,0 94.469,8.468 140.875,26.457 154.823,59.883 249.593,207.746 249.643,364.321 0,46.84 -8.49,94.45 -26.46,140.86" /><path
             id="path24"
             style="fill:#ffffff;fill-opacity:1;fill-rule:nonzero;stroke:none"
             d="M 220.297,97.7383 C 203.949,80.3398 183.828,71.6484 159.961,71.6484 c -24.664,0 -45.117,8.543 -61.3633,25.6719 C 82.3594,114.43 74.2422,136.82 74.2422,164.512 c 0,27.136 8.1172,49.117 24.3555,65.949 16.2463,16.828 36.6993,25.211 61.3633,25.211 24.437,0 44.719,-8.543 60.758,-25.66 16.043,-17.09 24.066,-39 24.066,-65.762 0,-26.949 -8.168,-49.129 -24.488,-66.5117 z M 176.305,327.91 c -18.739,0 -36.321,-3.551 -52.77,-10.609 -16.418,-7.063 -31.7069,-17.66 -45.8592,-31.813 V 440.27 L 0,440.27 V 8.03125 H 77.6758 V 40.9805 C 92.9727,26.4609 108.367,15.9883 123.844,9.58984 139.309,3.19141 156.023,0 173.988,0 c 40.328,0 75.207,15.6211 104.629,46.8711 29.418,31.2305 44.141,70.0779 44.141,116.4999 0,48.168 -14.246,87.617 -42.699,118.391 -28.497,30.758 -63.071,46.148 -103.754,46.148" /><path
             id="path26"
             style="fill:#ffffff;fill-opacity:1;fill-rule:nonzero;stroke:none"
             d="M 585.133,97.3203 C 568.938,80.1914 548.559,71.6484 524,71.6484 c -23.82,0 -43.867,8.6914 -60.145,26.0899 -16.293,17.3827 -24.429,39.5627 -24.429,66.5117 0,26.762 7.996,48.672 24.012,65.762 15.992,17.117 36.074,25.66 60.261,25.66 24.762,0 45.239,-8.383 61.434,-25.211 16.168,-16.832 24.293,-38.813 24.293,-65.949 0,-27.692 -8.125,-50.082 -24.293,-67.1917 z m 20.824,188.1677 c -13.926,14.153 -29.094,24.75 -45.512,31.813 -16.418,7.058 -33.98,10.609 -52.668,10.609 -40.672,0 -75.203,-15.39 -103.652,-46.148 -28.426,-30.774 -42.656,-70.223 -42.656,-118.391 0,-46.422 14.703,-85.2694 44.097,-116.4999 C 434.941,15.6211 469.789,0 510.051,0 c 17.957,0 34.597,3.19141 49.969,9.58984 15.375,6.39846 30.668,16.87106 45.937,31.39066 V 8.03125 h 78.254 V 319.91 h -78.254 v -34.422" /><path
             id="path28"
             style="fill:#ffffff;fill-opacity:1;fill-rule:nonzero;stroke:none"
             d="m 880.855,197.199 -28.664,14.34 c -12.429,6.121 -20.203,10.922 -23.379,14.473 -3.132,3.527 -4.714,7.386 -4.714,11.597 0,5.563 2.48,10.192 7.461,13.911 4.961,3.73 11.836,5.589 20.632,5.589 16.075,0 33.926,-9.75 53.606,-29.238 l 48.426,48.457 c -12.403,16.621 -27.567,29.371 -45.43,38.262 -17.871,8.871 -36.922,13.32 -57.176,13.32 -29.621,0 -53.937,-8.73 -72.945,-26.23 -19.004,-17.481 -28.52,-38.551 -28.52,-63.192 0,-38.238 25.207,-70.047 75.653,-95.468 l 26.386,-13.168 c 22.747,-11.461 34.102,-23.231 34.102,-35.2622 0,-6.5 -3.133,-12.2304 -9.473,-17.1796 -6.297,-4.9883 -14.59,-7.4883 -24.91,-7.4883 -9.562,0 -20.488,3.3164 -32.832,9.8984 -12.324,6.6016 -23.058,15.2383 -32.226,25.9607 L 738.691,53.3086 C 765.82,17.7695 802.113,0 847.602,0 c 34.199,0 61.484,9.28125 81.836,27.8086 20.351,18.5312 30.527,41.6523 30.527,69.3516 0,20.8198 -5.633,38.9878 -16.903,54.4808 -11.281,15.468 -32.031,30.668 -62.207,45.558" /><path
             id="path30"
             style="fill:#ffffff;fill-opacity:1;fill-rule:nonzero;stroke:none"
             d="m 1180.98,327.91 c -15.88,0 -31.54,-3.308 -47.01,-9.89 -15.5,-6.598 -30.87,-16.481 -46.16,-29.661 V 440.27 h -77.68 V 8.03125 h 77.68 V 133.281 c 0,33.43 1.14,54.84 3.44,64.199 4.41,18.161 12.28,32.481 23.67,42.989 11.35,10.519 24.96,15.769 40.82,15.769 12.23,0 22.52,-3.129 30.81,-9.457 8.33,-6.312 14.21,-15.851 17.64,-28.64 3.44,-12.813 5.16,-37.282 5.16,-73.403 V 8.03125 h 77.1 V 214.121 c 0,35.93 -9.06,63.149 -27.23,81.68 -21.22,21.41 -47.3,32.109 -78.24,32.109" /><path
             id="path32"
             style="fill:#ffffff;fill-opacity:1;fill-rule:nonzero;stroke:none"
             d="m 1547.29,98.3008 c -16.28,-16.9922 -36.68,-25.5 -61.17,-25.5 -24.51,0 -44.74,8.4101 -60.73,25.2383 -15.97,16.8129 -23.97,38.7809 -23.97,65.9099 0,26.379 8.07,48.031 24.26,64.922 16.18,16.91 36.4,25.391 60.72,25.391 24.88,0 45.31,-8.383 61.31,-25.09 15.99,-16.75 23.96,-38.461 23.96,-65.223 0,-26.758 -8.15,-48.621 -24.38,-65.6482 z m 81.44,147.6292 c -14.53,25.218 -34.74,45.199 -60.63,59.91 -25.9,14.699 -53.55,22.07 -82.97,22.07 -40.7,0 -76.74,-14.148 -108.07,-42.422 -35.76,-32.476 -53.61,-73.09 -53.61,-121.816 0,-45.481 15.81,-84.1212 47.43,-115.9611 C 1402.51,15.8984 1440.68,0 1485.4,0 c 30.4,0 58.19,7.21875 83.4,21.6484 25.25,14.4297 45.17,34.4297 59.77,60.0313 14.63,25.6213 21.95,53.1213 21.95,82.5703 0,29.219 -7.27,56.461 -21.79,81.68" /><path
             id="path34"
             style="fill:#ffffff;fill-opacity:1;fill-rule:nonzero;stroke:none"
             d="m 945.902,609.898 c -54.851,-21.25 -111.433,-31.367 -167.031,-31.367 -0.023,0 -0.047,0 -0.047,0 -0.031,0 -0.031,0 -0.051,0 -185.668,0 -360.75,112.508 -431.878,295.957 -21.247,54.883 -31.364,111.496 -31.364,167.132 -0.023,185.68 112.481,360.81 296.008,431.92 54.832,21.25 111.406,31.36 167.012,31.36 0.023,0 0.047,0 0.07,0 0.051,0 0.074,0 0.129,0 185.602,0 360.67,-112.51 431.79,-295.95 v -0.02 c 21.25,-54.86 31.34,-111.44 31.34,-167.05 0.03,-185.681 -112.44,-360.86 -295.978,-431.982 z M 241.023,1330.09 c 0,0 -68.535,0.27 -74.562,67.39 -6.027,67.14 5.531,156.22 5.531,156.22 0,0 2.789,28.36 20.305,45.94 v 0.02 c 17.586,17.49 45.965,20.26 45.965,20.26 0,0 56.172,7.31 112.949,7.31 14.695,0 29.449,-0.48 43.266,-1.73 67.117,-6.02 67.363,-74.61 67.363,-74.61 l 9.57,-79.03 c -13.351,-9.53 -26.234,-19.71 -38.64,-30.43 -0.547,6.8 -1.493,18.03 -2.239,21.66 -2.148,10.44 -1.699,30.67 -31.09,33.13 -29.453,2.46 -68.582,-3.26 -68.582,-3.26 0,0 -12.484,-1.39 -20.254,-9.52 v -0.01 c -7.773,-8.14 -9.097,-21.21 -9.097,-21.21 0,0 -5.477,-41 -3.063,-71.84 2.317,-30.83 32.438,-30.64 32.438,-30.64 l 23.265,-3.07 c -4.734,-6.39 -9.339,-12.91 -13.8,-19.54 -3.739,-5.54 -7.352,-11.15 -10.86,-16.81 z m 1030.657,-97.5 -1.18,2.97 -0.04,0.13 c -39.48,100.04 -107.32,184.5 -196.31,244.38 -87.838,59.12 -189.974,90.36 -295.4,90.36 h -0.129 c -65.34,0 -129.488,-12.04 -190.769,-35.8 -19.883,-7.7 -39.118,-16.55 -57.7,-26.42 l -5.726,47.27 c -2.02,50.51 -35.981,124.51 -124.336,132.45 -14.703,1.32 -31.121,1.98 -48.879,1.98 -57.195,0 -112.828,-6.79 -120.305,-7.74 -10.855,-1.22 -52.312,-7.74 -82.804,-38.06 -0.575,-0.56 -1.122,-1.13 -1.649,-1.7 -29.168,-30.36 -35.496,-70.68 -36.691,-81.38 -1.215,-9.65 -12.0511,-98.56 -5.723,-169.16 7.938,-88.38 81.93,-122.33 132.426,-124.36 l 60.906,-7.37 c -31.109,-68.4 -47.375,-142.59 -47.351,-218.53 -0.024,-65.262 12.031,-129.465 35.796,-190.798 39.313,-101.386 107.598,-186.953 197.5,-247.453 87.793,-59.109 189.981,-90.339 295.457,-90.339 65.372,0 129.543,12.019 190.801,35.789 101.416,39.293 187.046,107.601 247.516,197.531 59.1,87.867 90.37,190.055 90.35,295.55 0,65.26 -12.06,129.41 -35.76,190.7" /><path
             id="path36"
             style="fill:#f79224;fill-opacity:1;fill-rule:nonzero;stroke:none"
             d="m 354.148,1356.67 c 0,0 13.352,19.84 37.981,46.49 21.969,23.79 40.641,38.27 40.641,38.27 0,0 -0.188,9.93 -1.977,19.73 -3.789,20.72 -3.852,37.46 -48.234,35.87 -46.743,-1.68 -78.914,2.99 -82.504,-42.65 -3.301,-42.05 -5.098,-69.24 4.379,-81.71 10.765,-14.15 25.648,-12.95 35.476,-14.28 9.824,-1.33 14.238,-1.72 14.238,-1.72" /></g></g></g></g></svg>