<?xml version="1.0" encoding="UTF-8" standalone="no"?>
<svg
   xmlns:dc="http://purl.org/dc/elements/1.1/"
   xmlns:cc="http://creativecommons.org/ns#"
   xmlns:rdf="http://www.w3.org/1999/02/22-rdf-syntax-ns#"
   xmlns:svg="http://www.w3.org/2000/svg"
   xmlns="http://www.w3.org/2000/svg"
   viewBox="0 0 333.34668 115.28"
   height="115.28"
   width="333.34668"
   xml:space="preserve"
   id="svg2"
   version="1.1"><metadata
     id="metadata8"><rdf:RDF><cc:Work
         rdf:about=""><dc:format>image/svg+xml</dc:format><dc:type
           rdf:resource="http://purl.org/dc/dcmitype/StillImage" /></cc:Work></rdf:RDF></metadata><defs
     id="defs6"><clipPath
       id="clipPath20"
       clipPathUnits="userSpaceOnUse"><path
         id="path18"
         d="M 0,0 H 2500 V 864.59 H 0 Z" /></clipPath></defs><g
     transform="matrix(1.3333333,0,0,-1.3333333,0,115.28)"
     id="g10"><g
       transform="scale(0.1)"
       id="g12"><g
         id="g14"><g
           clip-path="url(#clipPath20)"
           id="g16"><path
             id="path22"
             style="fill:#5a5c62;fill-opacity:1;fill-rule:nonzero;stroke:none"
             d="m 1179.96,237.773 c -15.07,-16.054 -33.65,-24.074 -55.69,-24.074 -22.75,0 -41.63,7.883 -56.63,23.672 -14.98,15.781 -22.48,36.469 -22.48,62.055 0,25.039 7.5,45.32 22.48,60.847 15,15.516 33.88,23.282 56.63,23.282 22.57,0 41.28,-7.891 56.1,-23.672 14.8,-15.789 22.21,-36.035 22.21,-60.731 0,-24.867 -7.55,-45.332 -22.62,-61.379 z m -40.6,212.454 c -17.29,0 -33.52,-3.274 -48.7,-9.782 -15.16,-6.531 -29.27,-16.32 -42.33,-29.371 V 553.93 H 976.637 V 154.961 h 71.693 v 30.43 c 14.12,-13.407 28.32,-23.067 42.61,-28.965 14.28,-5.918 29.71,-8.867 46.29,-8.867 37.22,0 69.42,14.414 96.57,43.261 27.15,28.836 40.76,64.676 40.76,107.539 0,44.453 -13.16,80.871 -39.43,109.27 -26.3,28.391 -58.21,42.598 -95.77,42.598" /><path
             id="path24"
             style="fill:#5a5c62;fill-opacity:1;fill-rule:nonzero;stroke:none"
             d="m 1516.73,237.371 c -14.95,-15.789 -33.76,-23.672 -56.43,-23.672 -21.97,0 -40.49,8.02 -55.51,24.074 -15.03,16.047 -22.55,36.512 -22.55,61.379 0,24.696 7.37,44.942 22.14,60.731 14.79,15.781 33.32,23.672 55.64,23.672 22.87,0 41.76,-7.766 56.71,-23.282 14.94,-15.527 22.42,-35.808 22.42,-60.847 0,-25.586 -7.48,-46.274 -22.42,-62.055 z m 19.23,173.703 c -12.85,13.051 -26.86,22.84 -42.02,29.371 -15.16,6.508 -31.36,9.782 -48.61,9.782 -37.55,0 -69.41,-14.207 -95.69,-42.598 -26.23,-28.399 -39.37,-64.817 -39.37,-109.27 0,-42.863 13.56,-78.703 40.7,-107.539 27.12,-28.847 59.3,-43.261 96.46,-43.261 16.56,0 31.93,2.949 46.13,8.867 14.17,5.898 28.29,15.558 42.4,28.965 v -30.43 h 72.23 V 442.82 h -72.23 v -31.746" /><path
             id="path26"
             style="fill:#5a5c62;fill-opacity:1;fill-rule:nonzero;stroke:none"
             d="m 1789.68,329.57 -26.46,13.242 c -11.46,5.633 -18.64,10.09 -21.55,13.36 -2.92,3.262 -4.38,6.824 -4.38,10.715 0,5.125 2.3,9.383 6.89,12.832 4.59,3.433 10.94,5.164 19.04,5.164 14.83,0 31.32,-9.004 49.49,-26.992 l 44.71,44.726 c -11.47,15.332 -25.46,27.094 -41.95,35.309 -16.47,8.195 -34.08,12.301 -52.77,12.301 -27.34,0 -49.79,-8.071 -67.33,-24.211 -17.55,-16.145 -26.32,-35.586 -26.32,-58.34 0,-35.281 23.26,-64.649 69.83,-88.106 l 24.34,-12.168 c 20.99,-10.578 31.5,-21.418 31.5,-32.539 0,-6.004 -2.91,-11.297 -8.74,-15.871 -5.83,-4.59 -13.49,-6.883 -23.01,-6.883 -8.82,0 -18.91,3.039 -30.31,9.129 -11.37,6.086 -21.29,14.067 -29.74,23.95 l -44.46,-48.43 c 25.04,-32.793 58.56,-49.199 100.55,-49.199 31.56,0 56.75,8.546 75.53,25.664 18.79,17.109 28.17,38.437 28.17,64.011 0,19.231 -5.2,36 -15.6,50.286 -10.42,14.289 -29.57,28.3 -57.43,42.05" /><path
             id="path28"
             style="fill:#5a5c62;fill-opacity:1;fill-rule:nonzero;stroke:none"
             d="m 2066.7,450.227 c -14.63,0 -29.09,-3.036 -43.37,-9.129 -14.31,-6.082 -28.49,-15.219 -42.61,-27.387 V 553.93 h -71.7 V 154.961 h 71.7 v 115.613 c 0,30.864 1.04,50.625 3.17,59.27 4.05,16.758 11.34,29.98 21.83,39.687 10.51,9.699 23.05,14.551 37.69,14.551 11.31,0 20.78,-2.91 28.45,-8.73 7.67,-5.821 13.11,-14.637 16.28,-26.454 3.17,-11.828 4.76,-34.394 4.76,-67.738 V 154.961 h 71.16 v 190.227 c 0,33.164 -8.37,58.289 -25.13,75.41 -19.58,19.754 -43.65,29.629 -72.23,29.629" /><path
             id="path30"
             style="fill:#5a5c62;fill-opacity:1;fill-rule:nonzero;stroke:none"
             d="m 2404.81,238.301 c -15.01,-15.692 -33.83,-23.543 -56.46,-23.543 -22.59,0 -41.28,7.762 -56.03,23.277 -14.76,15.531 -22.13,35.805 -22.13,60.863 0,24.336 7.45,44.317 22.38,59.911 14.93,15.617 33.61,23.418 56.07,23.418 22.97,0 41.82,-7.704 56.57,-23.133 14.76,-15.449 22.13,-35.508 22.13,-60.196 0,-24.707 -7.52,-44.906 -22.53,-60.597 z m 75.19,136.25 c -13.41,23.293 -32.07,41.719 -55.96,55.312 -23.9,13.567 -49.43,20.364 -76.6,20.364 -37.57,0 -70.81,-13.055 -99.74,-39.153 -33,-29.992 -49.48,-67.469 -49.48,-112.453 0,-41.98 14.6,-77.652 43.79,-107.019 29.18,-29.368 64.43,-44.043 105.69,-44.043 28.06,0 53.72,6.652 77,19.961 23.28,13.32 41.66,31.804 55.16,55.441 13.49,23.633 20.24,49.031 20.24,76.191 0,26.993 -6.71,52.118 -20.1,75.399" /><path
             id="path32"
             style="fill:#5a5c62;fill-opacity:1;fill-rule:nonzero;stroke:none"
             d="m 261.926,727.465 -8.258,68.152 c -0.309,21.805 -13.477,63.242 -61.641,67.563 -10.425,0.933 -22.242,1.41 -35.132,1.41 -45.063,0 -88.8598,-5.641 -90.7036,-5.879 -0.75,-0.063 -25.5976,-2.645 -41.6445,-18.617 l -2.6602,-2.656 v -0.239 C 8.24219,821.223 5.9375,799.105 5.84375,798.129 5.49219,795.484 -3.38281,726.188 1.42969,672.582 5.76172,624.414 47.168,611.23 68.9727,610.938 l 63.0233,-7.626 5.488,-0.671 3.086,4.589 c 30.629,45.387 70.012,82.879 117.059,111.426 l 4.988,3.024 -0.691,5.785" /><path
             id="path34"
             style="fill:#5a5c62;fill-opacity:1;fill-rule:nonzero;stroke:none"
             d="M 581.293,87.5391 C 544.477,73.2812 506.746,66.5625 469.59,66.5625 345.484,66.5938 228.281,141.73 180.789,264.453 c -4.793,12.395 -8.664,24.883 -11.781,37.434 6.453,33.394 26.004,99.285 67.844,-11.172 0,0 22.566,-63.145 60.875,-87.961 0,0 -40.571,451.023 180.437,324.723 0,0 138.09,-98.012 116.109,43.543 0,0 -18.085,138.113 115.997,0.078 19.726,-24.395 36.058,-52.192 47.988,-83.016 C 772.5,451.285 779.211,413.547 779.219,376.387 779.188,252.258 704.039,135.02 581.293,87.5391 Z M 469.535,9.04297 c -2.023,0 -4.047,0.07812 -6.074,0.10937 2.047,-0.03125 4.082,-0.10937 6.129,-0.10937 -0.024,0 -0.024,0 -0.055,0 z m 350.793,503.06203 -0.156,0.383 -0.012,0.035 c -27.992,71.973 -76.531,132.719 -140.363,175.696 -62.527,42.078 -135.235,64.32 -210.27,64.32 h -0.093 c -46.465,0 -92.114,-8.574 -135.735,-25.477 C 261.52,699.098 200.59,650.496 157.543,586.527 115.465,523.984 93.2188,451.246 93.2383,376.184 93.2383,329.758 101.801,284.07 118.715,240.41 146.695,168.254 195.277,107.363 259.254,64.3164 321.777,22.2461 394.492,0 469.535,0 c 46.535,0 92.188,8.57422 135.785,25.4609 72.2,27.9844 133.11,76.5821 176.157,140.5661 42.085,62.559 64.32,135.293 64.304,210.36 0,46.429 -8.562,92.09 -25.453,135.718" /><path
             id="path36"
             style="fill:#5a5c62;fill-opacity:1;fill-rule:nonzero;stroke:none"
             d="m 464.77,205.891 c 151.597,-94.375 151.597,85.828 151.597,85.828 -35.902,-28.75 -208.433,-43.114 -208.433,-43.114 0.25,-44.484 39.894,-32.128 56.836,-42.714" /><path
             id="path38"
             style="fill:#5a5c62;fill-opacity:1;fill-rule:nonzero;stroke:none"
             d="m 675.426,314.578 c 31.269,-130.074 68.469,-24.871 78.359,42.082 0.27,1.652 -0.117,3.449 0.746,4.844 10.723,18.937 2.18,39.414 2.18,39.414 -15.981,-60.945 -81.285,-86.34 -81.285,-86.34" /><path
             id="path40"
             style="fill:#f79224;fill-opacity:1;fill-rule:nonzero;stroke:none"
             d="m 237.258,712.754 c 0,0 0.14,26.492 -25.731,28.558 -25.925,2.071 -60.355,-2.738 -60.355,-2.738 0,0 -10.977,-1.164 -17.817,-8.004 v 0 c -6.839,-6.836 -8.003,-17.816 -8.003,-17.816 0,0 -4.829,-34.43 -2.692,-60.336 2.035,-25.887 28.531,-25.727 28.531,-25.727 l 3.012,-0.351 c 12.043,15.519 25.129,30.215 39.535,43.875 13.68,12.926 28.532,24.906 44.246,35.894 l -0.726,6.645" /></g></g></g></g></svg>