<?xml version="1.0" encoding="UTF-8" standalone="no"?>
<svg
   xmlns:dc="http://purl.org/dc/elements/1.1/"
   xmlns:cc="http://creativecommons.org/ns#"
   xmlns:rdf="http://www.w3.org/1999/02/22-rdf-syntax-ns#"
   xmlns:svg="http://www.w3.org/2000/svg"
   xmlns="http://www.w3.org/2000/svg"
   viewBox="0 0 209.73334 213.94667"
   height="213.94667"
   width="209.73334"
   xml:space="preserve"
   id="svg2"
   version="1.1"><metadata
     id="metadata8"><rdf:RDF><cc:Work
         rdf:about=""><dc:format>image/svg+xml</dc:format><dc:type
           rdf:resource="http://purl.org/dc/dcmitype/StillImage" /></cc:Work></rdf:RDF></metadata><defs
     id="defs6"><clipPath
       id="clipPath20"
       clipPathUnits="userSpaceOnUse"><path
         id="path18"
         d="M 0,0 H 1573 V 1604.56 H 0 Z" /></clipPath></defs><g
     transform="matrix(1.3333333,0,0,-1.3333333,0,213.94667)"
     id="g10"><g
       transform="scale(0.1)"
       id="g12"><g
         id="g14"><g
           clip-path="url(#clipPath20)"
           id="g16"><path
             id="path22"
             style="fill:#ffffff;fill-opacity:1;fill-rule:nonzero;stroke:none"
             d="m 1226.29,984.684 c 0,-257.356 -208.62,-465.985 -465.997,-465.985 -257.355,0 -465.977,208.629 -465.977,465.985 0,257.366 208.622,465.996 465.977,465.996 257.377,0 465.997,-208.63 465.997,-465.996" /><path
             id="path24"
             style="fill:#5a5c62;fill-opacity:1;fill-rule:nonzero;stroke:none"
             d="m 209.945,93.168 c -15.566,-16.5664 -34.75,-24.8594 -57.504,-24.8594 -23.492,0 -42.988,8.1523 -58.4722,24.4726 -15.4766,16.2888 -23.2149,37.6168 -23.2149,64.0468 0,25.863 7.7383,46.813 23.2149,62.832 15.4842,16.031 34.9802,24.051 58.4722,24.051 23.305,0 42.618,-8.172 57.918,-24.461 15.289,-16.309 22.938,-37.199 22.938,-62.711 0,-25.66 -7.785,-46.789 -23.352,-63.371 z M 168.02,312.539 c -17.86,0 -34.614,-3.379 -50.282,-10.09 -15.66,-6.75 -30.2224,-16.859 -43.7068,-30.347 V 419.621 H 0 V 7.64844 H 74.0312 V 39.0898 C 88.6016,25.25 103.266,15.2695 118.027,9.17188 132.77,3.07031 148.695,0 165.82,0 c 38.422,0 71.68,14.8984 99.715,44.6914 28.043,29.7774 42.078,66.7886 42.078,111.0466 0,45.891 -13.582,83.492 -40.711,112.813 -27.144,29.34 -60.105,43.988 -98.882,43.988" /><path
             id="path26"
             style="fill:#5a5c62;fill-opacity:1;fill-rule:nonzero;stroke:none"
             d="m 557.656,92.7812 c -15.422,-16.3203 -34.84,-24.4726 -58.261,-24.4726 -22.684,0 -41.797,8.293 -57.317,24.8594 -15.516,16.582 -23.277,37.711 -23.277,63.371 0,25.512 7.617,46.402 22.875,62.711 15.258,16.289 34.394,24.461 57.445,24.461 23.598,0 43.113,-8.02 58.535,-24.051 15.426,-16.019 23.156,-36.969 23.156,-62.832 0,-26.43 -7.73,-47.758 -23.156,-64.0468 z M 577.52,272.102 c -13.274,13.488 -27.731,23.597 -43.379,30.347 -15.645,6.711 -32.383,10.09 -50.203,10.09 -38.762,0 -71.668,-14.648 -98.782,-43.988 -27.097,-29.321 -40.66,-66.922 -40.66,-112.813 0,-44.258 14.012,-81.2692 42.027,-111.0466 C 414.531,14.8984 447.73,0 486.109,0 503.219,0 519.086,3.07031 533.738,9.17188 548.375,15.2695 562.969,25.25 577.52,39.0898 V 7.64844 h 74.582 V 304.898 H 577.52 v -32.796" /><path
             id="path28"
             style="fill:#5a5c62;fill-opacity:1;fill-rule:nonzero;stroke:none"
             d="m 839.492,187.961 -27.324,13.668 c -11.816,5.832 -19.246,10.422 -22.246,13.801 -3.02,3.359 -4.512,7.05 -4.512,11.058 0,5.282 2.371,9.703 7.102,13.242 4.754,3.559 11.304,5.321 19.656,5.321 15.312,0 32.344,-9.27 51.094,-27.84 l 46.191,46.148 c -11.855,15.84 -26.289,28 -43.32,36.481 -17.012,8.461 -35.176,12.699 -54.485,12.699 -28.25,0 -51.421,-8.34 -69.539,-25 -18.105,-16.648 -27.175,-36.738 -27.175,-60.238 0,-36.422 24.031,-66.75 72.117,-90.961 l 25.117,-12.57 c 21.68,-10.93 32.527,-22.122 32.527,-33.6098 0,-6.1993 -3.007,-11.6602 -9.011,-16.3907 -6.016,-4.7187 -13.946,-7.0976 -23.77,-7.0976 -9.121,0 -19.519,3.1367 -31.269,9.4297 -11.75,6.2968 -22.012,14.5078 -30.75,24.7184 L 704.016,50.8203 C 729.863,16.9609 764.473,0 807.82,0 c 32.578,0 58.606,8.82812 78,26.5312 19.407,17.6407 29.09,39.6797 29.09,66.0977 0,19.8511 -5.367,37.1601 -16.121,51.9021 -10.742,14.739 -30.508,29.219 -59.297,43.43" /><path
             id="path30"
             style="fill:#5a5c62;fill-opacity:1;fill-rule:nonzero;stroke:none"
             d="m 1125.53,312.539 c -15.1,0 -30.02,-3.129 -44.8,-9.418 -14.74,-6.281 -29.4,-15.711 -43.97,-28.281 V 419.621 H 962.727 V 7.64844 h 74.033 V 127.059 c 0,31.863 1.08,52.25 3.28,61.179 4.18,17.313 11.7,30.961 22.52,40.992 10.86,10 23.83,15.02 38.94,15.02 11.66,0 21.45,-3.012 29.37,-9.012 7.9,-6.008 13.51,-15.129 16.79,-27.328 3.27,-12.211 4.92,-35.5 4.92,-69.941 V 7.64844 h 73.47 V 204.078 c 0,34.242 -8.63,60.192 -25.94,77.871 -20.21,20.403 -45.06,30.59 -74.58,30.59" /><path
             id="path32"
             style="fill:#5a5c62;fill-opacity:1;fill-rule:nonzero;stroke:none"
             d="m 1474.65,93.7188 c -15.5,-16.2188 -34.92,-24.3086 -58.29,-24.3086 -23.34,0 -42.64,8 -57.86,24.0195 -15.26,16.0393 -22.87,36.9683 -22.87,62.8513 0,25.117 7.72,45.77 23.14,61.867 15.41,16.133 34.71,24.192 57.87,24.192 23.72,0 43.19,-7.969 58.43,-23.918 15.22,-15.942 22.84,-36.66 22.84,-62.141 0,-25.492 -7.76,-46.371 -23.26,-62.5622 z m 77.64,140.6912 c -13.87,24.051 -33.13,43.07 -57.8,57.102 -24.67,14.019 -51.04,21.027 -79.08,21.027 -38.8,0 -73.12,-13.48 -103,-40.437 -34.04,-30.954 -51.06,-69.653 -51.06,-116.114 0,-43.328 15.04,-80.1794 45.2,-110.488 30.13,-30.3203 66.53,-45.5 109.12,-45.5 28.97,0 55.46,6.89062 79.52,20.6406 24.03,13.75 43.02,32.8399 56.96,57.25 13.93,24.3794 20.89,50.6094 20.89,78.6484 0,27.879 -6.93,53.84 -20.75,77.871" /><path
             id="path34"
             style="fill:#5a5c62;fill-opacity:1;fill-rule:nonzero;stroke:none"
             d="m 237.816,1287.61 85.465,-10.34 c 41.239,61.12 95.735,113.75 161.262,153.51 l -11.184,92.35 c 0,0 -0.285,73.16 -71.871,79.58 -71.605,6.41 -166.625,-5.95 -166.625,-5.95 0,0 -30.258,-2.94 -49.027,-21.62 v -0.02 c -18.688,-18.75 -21.641,-49 -21.641,-49 0,0 -12.347,-95.01 -5.925,-166.64 6.433,-71.59 79.546,-71.87 79.546,-71.87" /><path
             id="path36"
             style="fill:#5a5c62;fill-opacity:1;fill-rule:nonzero;stroke:none"
             d="M 906.023,596.629 C 856.504,577.441 805.73,568.391 755.742,568.391 588.777,568.43 431.098,669.547 367.207,834.629 c -6.461,16.66 -11.656,33.473 -15.863,50.351 8.691,44.942 34.984,133.6 91.285,-15.023 0,0 30.351,-84.941 81.898,-118.32 0,0 -54.586,606.783 242.746,436.863 0,0 185.793,-131.86 156.211,58.59 0,0 -24.343,185.81 156.056,0.09 26.55,-32.8 48.51,-70.22 64.56,-111.68 19.15,-49.52 28.21,-100.29 28.21,-150.27 -0.05,-167.011 -101.15,-324.738 -266.287,-388.601 z m 310.257,566.821 c -75.91,195.71 -262.718,315.73 -460.733,315.68 -59.324,0.01 -119.711,-10.77 -178.227,-33.45 C 381.547,1369.84 261.527,1183.02 261.57,984.957 261.562,925.605 272.355,865.219 295.027,806.68 370.898,610.973 557.695,490.969 755.742,491 c 0.02,0 0.039,0 0.07,0 59.305,0 119.668,10.762 178.165,33.449 195.763,75.86 315.763,262.715 315.743,460.781 0,59.32 -10.8,119.68 -33.44,178.2 v 0.02" /><path
             id="path38"
             style="fill:#5a5c62;fill-opacity:1;fill-rule:nonzero;stroke:none"
             d="M 749.246,755.848 C 953.203,628.863 953.203,871.316 953.203,871.316 904.91,832.625 672.805,813.301 672.805,813.301 c 0.332,-59.84 53.672,-43.215 76.441,-57.453" /><path
             id="path40"
             style="fill:#5a5c62;fill-opacity:1;fill-rule:nonzero;stroke:none"
             d="m 1032.68,902.078 c 42.04,-175.012 92.11,-33.48 105.42,56.617 0.35,2.207 -0.17,4.633 0.99,6.5 14.44,25.485 2.93,53.025 2.93,53.025 -21.49,-81.993 -109.34,-116.142 -109.34,-116.142" /><path
             id="path42"
             style="fill:#f79224;fill-opacity:1;fill-rule:nonzero;stroke:none"
             d="m 455.48,1421.29 c 0,0 0.188,35.64 -34.617,38.42 -34.871,2.79 -81.199,-3.67 -81.199,-3.67 0,0 -14.769,-1.57 -23.973,-10.77 v -0.01 c -9.199,-9.2 -10.765,-23.97 -10.765,-23.97 0,0 -6.488,-46.32 -3.617,-81.18 2.746,-34.82 38.379,-34.61 38.379,-34.61 l 4.062,-0.46 c 16.191,20.87 33.809,40.64 53.184,59.02 18.414,17.39 38.386,33.5 59.531,48.3 l -0.985,8.93" /></g></g></g></g></svg>