<?xml version="1.0" encoding="UTF-8" standalone="no"?>
<svg
   xmlns:dc="http://purl.org/dc/elements/1.1/"
   xmlns:cc="http://creativecommons.org/ns#"
   xmlns:rdf="http://www.w3.org/1999/02/22-rdf-syntax-ns#"
   xmlns:svg="http://www.w3.org/2000/svg"
   xmlns="http://www.w3.org/2000/svg"
   viewBox="0 0 313.53333 98.813332"
   height="98.813332"
   width="313.53333"
   xml:space="preserve"
   id="svg2"
   version="1.1"><metadata
     id="metadata8"><rdf:RDF><cc:Work
         rdf:about=""><dc:format>image/svg+xml</dc:format><dc:type
           rdf:resource="http://purl.org/dc/dcmitype/StillImage" /></cc:Work></rdf:RDF></metadata><defs
     id="defs6"><clipPath
       id="clipPath20"
       clipPathUnits="userSpaceOnUse"><path
         id="path18"
         d="M 0,0 H 2351.5 V 741 H 0 Z" /></clipPath></defs><g
     transform="matrix(1.3333333,0,0,-1.3333333,0,98.813333)"
     id="g10"><g
       transform="scale(0.1)"
       id="g12"><g
         id="g14"><g
           clip-path="url(#clipPath20)"
           id="g16"><path
             id="path22"
             style="fill:#5a5c62;fill-opacity:1;fill-rule:nonzero;stroke:none"
             d="m 299.391,35.3438 -25.465,2.2539 c 0.105,1.1914 9.836,120.7543 -48.637,249.0433 C 169.34,409.379 104.527,435.496 103.867,435.754 l 4.551,12.18 1.949,12.41 c 5.047,-0.789 125.141,-20 245.207,-73.68 119.922,-53.566 177.309,-95.031 179.692,-96.769 L 520.211,269.23 c -0.566,0.418 -57.926,41.75 -175.066,94.098 -45.344,20.266 -91.262,35.582 -130.559,46.746 28.551,-16.851 61.129,-38.488 95.125,-65.586 C 419.387,257.004 465.09,117.168 466.977,111.27 l -24.34,-7.825 c -0.446,1.391 -45.379,138.489 -148.864,221.047 -37.425,29.844 -73.324,52.903 -103.601,70.07 18.883,-23.554 39.176,-55.183 58.375,-97.296 61.398,-134.715 51.308,-256.8051 50.844,-261.9222" /><path
             id="path24"
             style="fill:#f79224;fill-opacity:1;fill-rule:nonzero;stroke:none"
             d="m 146.875,450.25 c 0,-20.973 -17.016,-37.988 -37.984,-37.988 -20.973,0 -37.9848,17.015 -37.9848,37.988 0,20.965 17.0118,37.988 37.9848,37.988 20.968,0 37.984,-17.023 37.984,-37.988 v 0" /><path
             id="path26"
             style="fill:#5a5c62;fill-opacity:1;fill-rule:nonzero;stroke:none"
             d="m 318.062,521.148 c 0,-20.972 -17.023,-37.98 -37.988,-37.98 -20.972,0 -37.984,17.008 -37.984,37.98 0,20.969 17.012,37.989 37.984,37.989 20.965,0 37.988,-17.02 37.988,-37.989 v 0" /><path
             id="path28"
             style="fill:#5a5c62;fill-opacity:1;fill-rule:nonzero;stroke:none"
             d="m 488.23,449.234 c 0,-20.972 -17.007,-37.984 -37.98,-37.984 -20.969,0 -37.988,17.012 -37.988,37.984 0,20.965 17.019,37.985 37.988,37.985 20.973,0 37.98,-17.02 37.98,-37.985 v 0" /><path
             id="path30"
             style="fill:#5a5c62;fill-opacity:1;fill-rule:nonzero;stroke:none"
             d="m 559.133,279.062 c 0,-20.964 -17.016,-37.976 -37.981,-37.976 -20.964,0 -37.976,17.012 -37.976,37.976 0,20.965 17.012,37.977 37.976,37.977 20.965,0 37.981,-17.012 37.981,-37.977 v 0" /><path
             id="path32"
             style="fill:#5a5c62;fill-opacity:1;fill-rule:nonzero;stroke:none"
             d="m 488.23,108.887 c 0,-20.9651 -17.007,-37.9808 -37.98,-37.9808 -20.969,0 -37.988,17.0157 -37.988,37.9808 0,20.968 17.019,37.976 37.988,37.976 20.973,0 37.98,-17.008 37.98,-37.976 v 0" /><path
             id="path34"
             style="fill:#5a5c62;fill-opacity:1;fill-rule:nonzero;stroke:none"
             d="M 318.062,37.9805 C 318.062,17.0117 301.039,0 280.074,0 259.102,0 242.09,17.0117 242.09,37.9805 c 0,20.9648 17.012,37.9961 37.984,37.9961 20.965,0 37.988,-17.0313 37.988,-37.9961 v 0" /><path
             id="path36"
             style="fill:#5a5c62;fill-opacity:1;fill-rule:nonzero;stroke:none"
             d="m 146.875,107.883 c 0,-20.9689 -17.016,-38.0002 -37.984,-38.0002 -20.973,0 -37.9848,17.0313 -37.9848,38.0002 0,20.965 17.0118,37.969 37.9848,37.969 20.968,0 37.984,-17.004 37.984,-37.969 v 0" /><path
             id="path38"
             style="fill:#5a5c62;fill-opacity:1;fill-rule:nonzero;stroke:none"
             d="m 75.9727,279.062 c 0,-20.964 -17.0157,-37.976 -37.9844,-37.976 C 17.0156,241.086 0,258.098 0,279.062 c 0,20.965 17.0156,37.977 37.9883,37.977 20.9687,0 37.9844,-17.012 37.9844,-37.977 v 0" /><path
             id="path40"
             style="fill:#5a5c62;fill-opacity:1;fill-rule:nonzero;stroke:none"
             d="m 650.062,531.676 h 109.376 v -64.039 c 11.839,25.238 27.574,44.41 47.218,57.496 19.629,13.094 41.121,19.633 64.492,19.633 16.524,0 33.817,-4.368 51.887,-13.09 L 883.312,421.832 c -14.96,7.48 -27.265,11.227 -36.925,11.227 -19.645,0 -36.309,-12.164 -50.024,-36.465 -13.398,-24.313 -20.097,-71.985 -20.097,-143.032 l 0.468,-24.785 V 23.1133 H 650.062 V 531.676" /><path
             id="path42"
             style="fill:#5a5c62;fill-opacity:1;fill-rule:nonzero;stroke:none"
             d="M 970.719,531.676 H 1098.8 V 23.1133 H 970.719 V 531.676 m 64.041,209.41 c 22.43,0 41.6,-8.102 57.48,-24.309 16.21,-16.207 24.31,-35.836 24.31,-58.894 0,-22.75 -7.94,-42.223 -23.84,-58.43 -15.89,-15.891 -34.89,-23.832 -57.02,-23.832 -22.75,0 -42.229,8.102 -58.428,24.301 -15.895,16.516 -23.84,36.461 -23.84,59.828 0,22.438 7.945,41.602 23.84,57.496 15.886,15.895 35.058,23.84 57.498,23.84" /><path
             id="path44"
             style="fill:#5a5c62;fill-opacity:1;fill-rule:nonzero;stroke:none"
             d="m 1456.38,426.977 c -39.59,0 -72.45,-14.028 -98.65,-42.071 -26.17,-27.734 -39.25,-63.422 -39.25,-107.054 0,-43.914 13.26,-80.079 39.74,-108.426 26.79,-28.371 59.67,-42.531 98.64,-42.531 40.17,0 73.53,13.859 100.02,41.589 26.49,28.047 39.74,64.661 39.74,109.856 0,44.226 -13.25,80.066 -39.74,107.496 -26.49,27.426 -59.99,41.141 -100.5,41.141 m 134.14,104.699 h 127.15 V 23.1133 h -127.15 v 53.7422 c -24.93,-23.6719 -50,-40.8086 -75.24,-51.4063 -24.93,-10.2734 -52.06,-15.4101 -81.34,-15.4101 -65.77,0 -122.62,25.3906 -170.62,76.1718 -47.98,51.1131 -71.99,114.5191 -71.99,190.2541 0,78.515 23.24,142.871 69.66,193.039 46.42,50.18 102.83,75.262 169.22,75.262 30.53,0 59.2,-5.762 85.99,-17.289 26.81,-11.539 51.58,-28.832 74.32,-51.891 v 56.09" /><path
             id="path46"
             style="fill:#5a5c62;fill-opacity:1;fill-rule:nonzero;stroke:none"
             d="M 1849.49,728 H 1977.1 V 321.793 l 187.91,209.883 h 159.84 l -218.75,-244 245.4,-264.5627 H 2193.05 L 1977.1,257.297 V 23.1133 H 1849.49 V 728" /></g></g></g></g></svg>