<?xml version="1.0" encoding="UTF-8" standalone="no"?>
<svg
   xmlns:dc="http://purl.org/dc/elements/1.1/"
   xmlns:cc="http://creativecommons.org/ns#"
   xmlns:rdf="http://www.w3.org/1999/02/22-rdf-syntax-ns#"
   xmlns:svg="http://www.w3.org/2000/svg"
   xmlns="http://www.w3.org/2000/svg"
   viewBox="0 0 329.50668 99.213333"
   height="99.213333"
   width="329.50668"
   xml:space="preserve"
   id="svg2"
   version="1.1"><metadata
     id="metadata8"><rdf:RDF><cc:Work
         rdf:about=""><dc:format>image/svg+xml</dc:format><dc:type
           rdf:resource="http://purl.org/dc/dcmitype/StillImage" /></cc:Work></rdf:RDF></metadata><defs
     id="defs6" /><g
     transform="matrix(1.3333333,0,0,-1.3333333,0,99.213333)"
     id="g10"><g
       transform="scale(0.1)"
       id="g12"><path
         id="path14"
         style="fill:#5a5c62;fill-opacity:1;fill-rule:nonzero;stroke:none"
         d="m 2360.41,438.109 c -5.3,168.934 -137.64,307.496 -315.85,306.008 -100.86,-0.84 -191.86,-39.59 -252.39,-126.601 -8.86,3.183 -27.8,8.656 -53.82,8.656 -116.32,0 -159.76,-97.426 -159.76,-97.426 0,0 0,0.195 0.14,0.281 89.38,58.016 204.21,17.891 229.43,-35.453 0,0 40.39,163.899 226.6,163.899 126.84,0 239.62,-91.141 239.62,-212.477 0,-43.453 -7.16,-59.883 -7.16,-59.883 0,0 118.12,-19.785 118.12,-140.047 0,-75.222 -61.4,-138.328 -135.79,-138.328 -1.61,0 -9.9,0.008 -12.03,0.008 -15.82,0 -63.35,0 -63.35,0 -6.26,-30.9726 -28,-66.9999 -53.15,-85.5155 l 114.26,0.0312 c 1.08,-0.1679 10.42,-0.0312 12.12,-0.0312 123.42,0 223.88,100.3515 223.88,223.8355 0,80.036 -42.43,153.805 -110.87,193.043" /><path
         id="path16"
         style="fill:#5a5c62;fill-opacity:1;fill-rule:nonzero;stroke:none"
         d="m 0,434.551 h 89.1094 v -52.164 c 9.6562,20.543 22.4766,36.172 38.4956,46.832 15.985,10.652 33.473,15.976 52.528,15.976 13.457,0 27.555,-3.535 42.289,-10.644 l -32.399,-89.5 c -12.179,6.097 -22.195,9.152 -30.043,9.152 -16.011,0 -29.597,-9.906 -40.765,-29.723 -10.938,-19.792 -16.387,-58.652 -16.387,-116.511 l 0.395,-20.196 V 20.1875 H 0 V 434.551" /><path
         id="path18"
         style="fill:#5a5c62;fill-opacity:1;fill-rule:nonzero;stroke:none"
         d="M 261.273,434.551 H 365.602 V 20.1875 H 261.273 V 434.551 m 52.161,170.59 c 18.281,0 33.875,-6.579 46.843,-19.786 13.203,-13.203 19.782,-29.195 19.782,-47.976 0,-18.547 -6.485,-34.41 -19.383,-47.613 -12.973,-12.95 -28.449,-19.418 -46.481,-19.418 -18.547,0 -34.41,6.593 -47.617,19.8 -12.93,13.457 -19.414,29.707 -19.414,48.754 0,18.278 6.484,33.887 19.414,46.84 12.977,12.946 28.578,19.399 46.856,19.399" /><path
         id="path20"
         style="fill:#5a5c62;fill-opacity:1;fill-rule:nonzero;stroke:none"
         d="m 656.941,349.246 c -32.25,0 -59.015,-11.434 -80.343,-34.273 -21.328,-22.61 -32.02,-51.684 -32.02,-87.207 0,-35.793 10.813,-65.254 32.387,-88.371 21.847,-23.086 48.64,-34.629 80.363,-34.629 32.734,0 59.906,11.269 81.477,33.867 21.586,22.859 32.402,52.707 32.402,89.531 0,36.008 -10.816,65.227 -32.402,87.578 -21.571,22.328 -48.856,33.504 -81.864,33.504 m 109.293,85.305 h 103.59 V 20.1875 H 766.234 V 64.0039 C 745.906,44.6953 725.48,30.7305 704.922,22.1094 684.629,13.7227 662.52,9.55078 638.656,9.55078 c -53.554,0 -99.894,20.71482 -139.008,62.08202 -39.097,41.6402 -58.64,93.2692 -58.64,155.0002 0,63.941 18.926,116.39 56.734,157.25 37.84,40.89 83.778,61.312 137.86,61.312 24.91,0 48.261,-4.683 70.074,-14.066 21.84,-9.387 42.019,-23.481 60.558,-42.266 v 45.688" /><path
         id="path22"
         style="fill:#5a5c62;fill-opacity:1;fill-rule:nonzero;stroke:none"
         d="M 977.223,594.504 H 1081.19 V 263.555 l 153.08,170.996 h 130.25 L 1186.29,235.754 1386.24,20.1875 H 1257.12 L 1081.19,210.977 V 20.1875 H 977.223 V 594.504" /><path
         id="path24"
         style="fill:#f79224;fill-opacity:1;fill-rule:nonzero;stroke:none"
         d="m 2040.62,302.09 c -10.68,16.125 -43.32,62.121 -44.53,63.832 -6.88,10.5 -13.83,23.242 -20.52,35.543 -20.78,38.015 -40.41,73.918 -68.44,73.918 -5.21,0 -10.4,-1.301 -15.52,-3.863 -23.29,-11.872 -36.72,-26.649 -39.82,-43.977 -5.22,-28.559 19.26,-54.336 29.01,-64.461 C 1779.69,193.125 1686.51,103.73 1603.78,97.3242 l -0.72,-3.7031 0.63,3.5351 c -26.76,-2.1562 -48.42,5.7538 -66.7,24.5898 -18.92,19.492 -29.98,46.684 -32.79,80.781 -3.56,43.325 7.07,84.973 31.6,123.766 23.48,37.141 50.37,57.223 79.94,59.66 30.69,2.504 44.42,-7.551 46.96,-36.449 2.31,-26.692 16.11,-30.68 24.13,-30.68 2.55,0 5.19,0.422 7.89,1.231 42.44,12.703 67.87,44.383 64.88,80.66 -1.89,22.93 -15.24,40.64 -39.64,52.66 -21.18,10.465 -47.4,14.48 -77.79,11.992 -71.77,-5.941 -132.82,-38.019 -181.5,-95.34 -48.7,-57.312 -70.41,-122.644 -64.48,-194.207 4.56,-55.117 24.46,-99.5505 59.24,-132.0036 C 1486.63,14.7656 1524.86,0 1569.02,0 c 5.29,0 10.65,0.242188 16.1,0.664062 l -0.13,-0.6054682 C 1649.44,5.06641 1716.59,40.5273 1784.58,105.488 c 44.19,42.188 97.19,111.867 146.32,192.129 63.84,-72.219 90.3,-142.969 69.27,-186.203 -13.78,-28.3398 -48.01,-40.8007 -96.47,-34.9687 -29.15,3.4961 -53.9,12.0703 -73.43,25.5077 -2.29,1.57 -3.98,2.742 -6.69,2.742 l -3.52,-0.039 -2.27,-2.437 c -3.54,-3.7893 -7.33,-10.4104 -5.47,-20.7542 4.16,-22.8125 33.77,-51.1523 58.86,-64.3242 20.83,-10.94919 46.03,-16.769506 72.92,-16.769506 58.87,0 111.49,27.031206 137.28,70.449206 24.08,40.6447 36.6,113.7307 -40.76,231.2697" /></g></g></svg>