<?xml version="1.0" encoding="UTF-8" standalone="no"?>
<svg
   xmlns:dc="http://purl.org/dc/elements/1.1/"
   xmlns:cc="http://creativecommons.org/ns#"
   xmlns:rdf="http://www.w3.org/1999/02/22-rdf-syntax-ns#"
   xmlns:svg="http://www.w3.org/2000/svg"
   xmlns="http://www.w3.org/2000/svg"
   viewBox="0 0 314.17334 94.599998"
   height="94.599998"
   width="314.17334"
   xml:space="preserve"
   id="svg2"
   version="1.1"><metadata
     id="metadata8"><rdf:RDF><cc:Work
         rdf:about=""><dc:format>image/svg+xml</dc:format><dc:type
           rdf:resource="http://purl.org/dc/dcmitype/StillImage" /></cc:Work></rdf:RDF></metadata><defs
     id="defs6" /><g
     transform="matrix(1.3333333,0,0,-1.3333333,0,94.6)"
     id="g10"><g
       transform="scale(0.1)"
       id="g12"><path
         id="path14"
         style="fill:#ffffff;fill-opacity:1;fill-rule:nonzero;stroke:none"
         d="m 2250.56,417.719 c -5.04,161.074 -131.22,293.187 -301.15,291.769 -96.16,-0.797 -182.94,-37.746 -240.64,-120.715 -8.44,3.043 -26.51,8.262 -51.32,8.262 -110.9,0 -152.31,-92.898 -152.31,-92.898 0,0 0,0.187 0.11,0.273 85.22,55.313 194.72,17.055 218.76,-33.805 0,0 38.53,156.27 216.06,156.27 120.94,0 228.47,-86.898 228.47,-202.59 0,-41.43 -6.83,-57.094 -6.83,-57.094 0,0 112.64,-18.863 112.64,-133.531 0,-71.726 -58.56,-131.902 -129.49,-131.902 -1.53,0 -9.44,0.019 -11.46,0.019 -15.09,0 -60.41,0 -60.41,0 -5.96,-29.5426 -26.68,-63.8864 -50.68,-81.5348 l 108.96,0.0234 c 1.02,-0.1601 9.93,-0.0234 11.54,-0.0234 117.68,0 213.47,95.6758 213.47,213.4178 0,76.317 -40.46,146.652 -105.72,184.059" /><path
         id="path16"
         style="fill:#ffffff;fill-opacity:1;fill-rule:nonzero;stroke:none"
         d="M 0,414.324 H 84.9609 V 364.59 c 9.2032,19.59 21.4341,34.492 36.7111,44.648 15.23,10.16 31.914,15.239 50.074,15.239 12.832,0 26.277,-3.375 40.324,-10.153 l -30.886,-85.336 c -11.618,5.817 -21.161,8.731 -28.657,8.731 -15.257,0 -28.211,-9.449 -38.859,-28.34 -10.43,-18.871 -15.625,-55.922 -15.625,-111.09 l 0.375,-19.258 V 19.2383 H 0 V 414.324" /><path
         id="path18"
         style="fill:#ffffff;fill-opacity:1;fill-rule:nonzero;stroke:none"
         d="M 249.117,414.324 H 348.59 V 19.2383 H 249.117 V 414.324 m 49.727,162.656 c 17.433,0 32.304,-6.273 44.668,-18.867 12.593,-12.586 18.859,-27.836 18.859,-45.746 0,-17.676 -6.176,-32.801 -18.484,-45.394 -12.36,-12.348 -27.117,-18.512 -44.317,-18.512 -17.675,0 -32.8,6.285 -45.394,18.875 -12.336,12.836 -18.512,28.324 -18.512,46.488 0,17.422 6.176,32.309 18.512,44.656 12.371,12.348 27.25,18.5 44.668,18.5" /><path
         id="path20"
         style="fill:#ffffff;fill-opacity:1;fill-rule:nonzero;stroke:none"
         d="m 626.379,332.996 c -30.758,0 -56.281,-10.902 -76.613,-32.684 -20.34,-21.55 -30.528,-49.265 -30.528,-83.156 0,-34.129 10.309,-62.207 30.879,-84.234 20.836,-22.024 46.375,-33.0275 76.621,-33.0275 31.215,0 57.125,10.7425 77.688,32.2935 20.586,21.789 30.89,50.253 30.89,85.351 0,34.336 -10.304,62.188 -30.89,83.508 -20.563,21.293 -46.582,31.949 -78.047,31.949 m 104.195,81.328 h 98.778 V 19.2383 H 730.574 V 61.0234 C 711.199,42.6172 691.719,29.2969 672.117,21.0859 652.77,13.0742 631.688,9.10938 608.938,9.10938 c -51.063,0 -95.247,19.73832 -132.547,59.18362 -37.27,39.715 -55.907,88.926 -55.907,147.793 0,60.965 18.047,110.973 54.102,149.934 36.066,38.984 79.871,58.457 131.437,58.457 23.75,0 46.02,-4.465 66.813,-13.415 20.82,-8.945 40.062,-22.386 57.738,-40.296 v 43.558" /><path
         id="path22"
         style="fill:#ffffff;fill-opacity:1;fill-rule:nonzero;stroke:none"
         d="m 931.746,566.832 h 99.134 V 251.289 l 145.96,163.035 h 124.18 L 1131.08,224.785 1321.73,19.2383 H 1198.62 L 1030.88,201.172 V 19.2383 H 931.746 V 566.832" /><path
         id="path24"
         style="fill:#f79224;fill-opacity:1;fill-rule:nonzero;stroke:none"
         d="m 1945.65,288.027 c -10.17,15.371 -41.28,59.235 -42.45,60.868 -6.55,10.011 -13.19,22.16 -19.56,33.882 -19.81,36.25 -38.54,70.485 -65.26,70.485 -4.97,0 -9.9,-1.242 -14.79,-3.684 -22.21,-11.32 -35.01,-25.414 -37.97,-41.926 -4.98,-27.23 18.37,-51.812 27.65,-61.468 C 1696.87,184.133 1608.04,98.9062 1529.14,92.793 l -0.68,-3.5157 0.6,3.3594 c -25.5,-2.0625 -46.17,5.4883 -63.59,23.4493 -18.05,18.582 -28.58,44.5 -31.26,77.027 -3.4,41.301 6.74,81.008 30.12,117.996 22.39,35.411 48.02,54.559 76.22,56.879 29.25,2.387 42.35,-7.191 44.77,-34.75 2.21,-25.457 15.37,-29.254 23.01,-29.254 2.43,0 4.96,0.407 7.52,1.172 40.47,12.117 64.72,42.321 61.87,76.903 -1.8,21.867 -14.54,38.765 -37.8,50.214 -20.19,9.973 -45.19,13.813 -74.16,11.438 -68.44,-5.668 -126.65,-36.25 -173.05,-90.902 -46.44,-54.664 -67.15,-116.95 -61.48,-185.164 4.34,-52.567 23.31,-94.9184 56.47,-125.8677 C 1417.45,14.0703 1453.91,0 1496.02,0 c 5.02,0 10.14,0.234375 15.34,0.636719 l -0.12,-0.5859378 C 1572.7,4.83594 1636.72,38.6523 1701.54,100.574 c 42.13,40.227 92.66,106.66 139.5,183.196 60.86,-68.868 86.1,-136.321 66.05,-177.54 -13.14,-27.0112 -45.77,-38.9058 -91.98,-33.3472 -27.8,3.3399 -51.38,11.5117 -70,24.3242 -2.2,1.4922 -3.81,2.6172 -6.38,2.6172 l -3.38,-0.0508 -2.15,-2.3125 c -3.38,-3.6132 -6.99,-9.9336 -5.21,-19.7851 3.96,-21.7461 32.2,-48.7813 56.11,-61.3281 19.86,-10.44926 43.89,-16.00395 69.53,-16.00395 56.13,0 106.31,25.78905 130.89,67.18355 22.97,38.7497 34.89,108.4297 -38.87,220.4997" /></g></g></svg>