<?xml version="1.0" encoding="UTF-8" standalone="no"?>
<svg
   xmlns:dc="http://purl.org/dc/elements/1.1/"
   xmlns:cc="http://creativecommons.org/ns#"
   xmlns:rdf="http://www.w3.org/1999/02/22-rdf-syntax-ns#"
   xmlns:svg="http://www.w3.org/2000/svg"
   xmlns="http://www.w3.org/2000/svg"
   viewBox="0 0 320.90668 99.41333"
   height="99.41333"
   width="320.90668"
   xml:space="preserve"
   id="svg2"
   version="1.1"><metadata
     id="metadata8"><rdf:RDF><cc:Work
         rdf:about=""><dc:format>image/svg+xml</dc:format><dc:type
           rdf:resource="http://purl.org/dc/dcmitype/StillImage" /></cc:Work></rdf:RDF></metadata><defs
     id="defs6"><clipPath
       id="clipPath20"
       clipPathUnits="userSpaceOnUse"><path
         id="path18"
         d="M 0,745.625 V 0 h 2406.8 v 745.625 z" /></clipPath></defs><g
     transform="matrix(1.3333333,0,0,-1.3333333,0,99.413333)"
     id="g10"><g
       transform="scale(0.1)"
       id="g12"><g
         id="g14"><g
           clip-path="url(#clipPath20)"
           id="g16"><path
             id="path22"
             style="fill:#ffffff;fill-opacity:1;fill-rule:nonzero;stroke:none"
             d="m 683.918,533.57 h 110.75 v -64.843 c 11.992,25.558 27.93,44.968 47.812,58.23 19.879,13.246 41.645,19.867 65.301,19.867 16.735,0 34.25,-4.422 52.555,-13.254 L 920.098,422.355 c -15.149,7.567 -27.61,11.356 -37.383,11.356 -19.895,0 -36.77,-12.32 -50.653,-36.926 -13.57,-24.605 -20.359,-72.89 -20.359,-144.82 l 0.477,-25.102 V 18.6055 H 683.918 V 533.57" /><path
             id="path24"
             style="fill:#ffffff;fill-opacity:1;fill-rule:nonzero;stroke:none"
             d="M 1008.61,533.57 H 1138.3 V 18.6055 H 1008.61 V 533.57 m 64.84,212.055 c 22.72,0 42.13,-8.211 58.22,-24.609 16.41,-16.414 24.61,-36.286 24.61,-59.645 0,-23.031 -8.04,-42.762 -24.13,-59.164 -16.1,-16.086 -35.35,-24.141 -57.75,-24.141 -23.03,0 -42.75,8.207 -59.16,24.61 -16.095,16.734 -24.146,36.926 -24.146,60.59 0,22.714 8.051,42.121 24.146,58.218 16.09,16.098 35.5,24.141 58.21,24.141" /><path
             id="path26"
             style="fill:#ffffff;fill-opacity:1;fill-rule:nonzero;stroke:none"
             d="m 1500.4,427.559 c -40.09,0 -73.38,-14.204 -99.88,-42.602 -26.52,-28.078 -39.76,-64.227 -39.76,-108.402 0,-44.477 13.41,-81.086 40.24,-109.809 27.13,-28.711 60.43,-43.055 99.87,-43.055 40.69,0 74.46,14.036 101.29,42.11 26.81,28.398 40.23,65.488 40.23,111.242 0,44.797 -13.42,81.082 -40.23,108.855 -26.83,27.774 -60.74,41.661 -101.76,41.661 m 135.82,106.011 h 128.75 V 18.6055 H 1636.22 V 73.0352 C 1610.98,49.0625 1585.6,31.7109 1560.04,20.9688 1534.79,10.5664 1507.33,5.35938 1477.66,5.35938 c -66.58,0 -124.15,25.71482 -172.76,77.12892 -48.58,51.7697 -72.89,115.9687 -72.89,192.6567 0,79.519 23.52,144.679 70.52,195.476 47.02,50.809 104.13,76.203 171.36,76.203 30.92,0 59.95,-5.828 87.08,-17.508 27.13,-11.679 52.23,-29.183 75.25,-52.535 v 56.789" /><path
             id="path28"
             style="fill:#ffffff;fill-opacity:1;fill-rule:nonzero;stroke:none"
             d="m 1898.46,732.371 h 129.21 v -411.32 l 190.27,212.519 h 161.87 L 2158.31,286.504 2406.8,18.6055 H 2246.34 L 2027.67,255.723 V 18.6055 H 1898.46 V 732.371" /><path
             id="path30"
             style="fill:#ffffff;fill-opacity:1;fill-rule:nonzero;stroke:none"
             d="m 303.164,35.7812 -25.793,2.293 c 0.117,1.2031 9.973,122.2778 -49.242,252.1798 C 171.48,414.543 105.84,440.996 105.176,441.246 l 4.609,12.332 1.969,12.57 c 5.117,-0.796 126.723,-20.253 248.308,-74.617 121.422,-54.242 179.543,-96.203 181.954,-98 l -15.254,-20.914 c -0.567,0.43 -58.653,42.285 -177.27,95.289 -45.914,20.524 -92.418,36.035 -132.203,47.332 28.918,-17.054 61.899,-38.968 96.328,-66.422 111.055,-88.574 157.336,-230.164 159.242,-236.14 l -24.652,-7.918 c -0.437,1.387 -45.941,140.242 -150.73,223.82 -37.899,30.223 -74.247,53.574 -104.915,70.957 19.122,-23.847 39.672,-55.875 59.114,-98.527 62.187,-136.406 51.957,-260.0392 51.488,-265.2268" /><path
             id="path32"
             style="fill:#f79224;fill-opacity:1;fill-rule:nonzero;stroke:none"
             d="m 148.727,455.93 c 0,-21.242 -17.239,-38.469 -38.461,-38.469 -21.2426,0 -38.4613,17.227 -38.4613,38.469 0,21.218 17.2187,38.465 38.4613,38.465 21.222,0 38.461,-17.247 38.461,-38.465 v 0" /><path
             id="path34"
             style="fill:#ffffff;fill-opacity:1;fill-rule:nonzero;stroke:none"
             d="m 322.066,527.719 c 0,-21.231 -17.238,-38.461 -38.457,-38.461 -21.242,0 -38.468,17.23 -38.468,38.461 0,21.23 17.226,38.465 38.468,38.465 21.219,0 38.457,-17.235 38.457,-38.465 v 0" /><path
             id="path36"
             style="fill:#ffffff;fill-opacity:1;fill-rule:nonzero;stroke:none"
             d="m 494.387,454.887 c 0,-21.219 -17.231,-38.446 -38.465,-38.446 -21.234,0 -38.461,17.227 -38.461,38.446 0,21.242 17.227,38.472 38.461,38.472 21.234,0 38.465,-17.23 38.465,-38.472 v 0" /><path
             id="path38"
             style="fill:#ffffff;fill-opacity:1;fill-rule:nonzero;stroke:none"
             d="m 566.176,282.59 c 0,-21.242 -17.227,-38.469 -38.457,-38.469 -21.227,0 -38.457,17.227 -38.457,38.469 0,21.219 17.23,38.441 38.457,38.441 21.23,0 38.457,-17.222 38.457,-38.441 v 0" /><path
             id="path40"
             style="fill:#ffffff;fill-opacity:1;fill-rule:nonzero;stroke:none"
             d="m 494.387,110.254 c 0,-21.2306 -17.231,-38.4454 -38.465,-38.4454 -21.234,0 -38.461,17.2148 -38.461,38.4454 0,21.238 17.227,38.469 38.461,38.469 21.234,0 38.465,-17.231 38.465,-38.469 v 0" /><path
             id="path42"
             style="fill:#ffffff;fill-opacity:1;fill-rule:nonzero;stroke:none"
             d="M 322.066,38.457 C 322.066,17.2266 304.828,0 283.609,0 c -21.242,0 -38.468,17.2266 -38.468,38.457 0,21.2305 17.226,38.4766 38.468,38.4766 21.219,0 38.457,-17.2461 38.457,-38.4766 v 0" /><path
             id="path44"
             style="fill:#ffffff;fill-opacity:1;fill-rule:nonzero;stroke:none"
             d="m 148.727,109.238 c 0,-21.2185 -17.239,-38.4685 -38.461,-38.4685 -21.2426,0 -38.4613,17.25 -38.4613,38.4685 0,21.242 17.2187,38.465 38.4613,38.465 21.222,0 38.461,-17.223 38.461,-38.465 v 0" /><path
             id="path46"
             style="fill:#ffffff;fill-opacity:1;fill-rule:nonzero;stroke:none"
             d="m 76.9336,282.59 c 0,-21.242 -17.2344,-38.469 -38.4727,-38.469 C 17.2305,244.121 0,261.348 0,282.59 c 0,21.219 17.2305,38.441 38.4609,38.441 21.2383,0 38.4727,-17.222 38.4727,-38.441 v 0" /></g></g></g></g></svg>