<?xml version="1.0" encoding="UTF-8" standalone="no"?>
<svg
   xmlns:dc="http://purl.org/dc/elements/1.1/"
   xmlns:cc="http://creativecommons.org/ns#"
   xmlns:rdf="http://www.w3.org/1999/02/22-rdf-syntax-ns#"
   xmlns:svg="http://www.w3.org/2000/svg"
   xmlns="http://www.w3.org/2000/svg"
   viewBox="0 0 327.44 164.69333"
   height="164.69333"
   width="327.44"
   xml:space="preserve"
   id="svg2"
   version="1.1"><metadata
     id="metadata8"><rdf:RDF><cc:Work
         rdf:about=""><dc:format>image/svg+xml</dc:format><dc:type
           rdf:resource="http://purl.org/dc/dcmitype/StillImage" /></cc:Work></rdf:RDF></metadata><defs
     id="defs6"><clipPath
       id="clipPath20"
       clipPathUnits="userSpaceOnUse"><path
         id="path18"
         d="M 0,0 H 2455.77 V 1235 H 0 Z" /></clipPath></defs><g
     transform="matrix(1.3333333,0,0,-1.3333333,0,164.69333)"
     id="g10"><g
       transform="scale(0.1)"
       id="g12"><g
         id="g14"><g
           clip-path="url(#clipPath20)"
           id="g16"><path
             id="path22"
             style="fill:#5a5c62;fill-opacity:1;fill-rule:nonzero;stroke:none"
             d="m 656.855,1013.85 h 115.649 v -67.698 c 12.523,26.672 29.156,46.946 49.945,60.778 20.742,13.83 43.449,20.74 68.164,20.74 17.473,0 35.77,-4.59 54.875,-13.82 L 903.453,897.699 c -15.812,7.922 -28.797,11.891 -38.988,11.891 -20.774,0 -38.41,-12.86 -52.899,-38.574 -14.203,-25.7 -21.261,-76.114 -21.261,-151.196 l 0.515,-26.211 V 476.129 H 656.855 v 537.721" /><path
             id="path24"
             style="fill:#5a5c62;fill-opacity:1;fill-rule:nonzero;stroke:none"
             d="M 995.906,1013.85 H 1131.3 V 476.129 H 995.906 v 537.721 m 67.684,221.38 c 23.74,0 43.97,-8.55 60.8,-25.68 17.14,-17.13 25.67,-37.89 25.67,-62.26 0,-24.06 -8.4,-44.65 -25.16,-61.79 -16.82,-16.8 -36.91,-25.2 -60.31,-25.2 -24.06,0 -44.65,8.56 -61.79,25.7 -16.78,17.47 -25.198,38.55 -25.198,63.27 0,23.71 8.418,43.97 25.198,60.78 16.84,16.8 37.08,25.18 60.79,25.18" /><path
             id="path26"
             style="fill:#5a5c62;fill-opacity:1;fill-rule:nonzero;stroke:none"
             d="m 1509.38,903.156 c -41.87,0 -76.6,-14.836 -104.27,-44.484 -27.68,-29.332 -41.55,-67.059 -41.55,-113.172 0,-46.453 14.03,-84.676 42.04,-114.664 28.34,-29.953 63.1,-44.953 104.27,-44.953 42.48,0 77.76,14.629 105.75,43.957 28,29.668 42.03,68.398 42.03,116.172 0,46.742 -14.03,84.652 -42.03,113.652 -27.99,28.984 -63.42,43.492 -106.24,43.492 m 141.82,110.694 h 134.42 V 476.129 H 1651.2 v 56.863 c -26.39,-25.047 -52.89,-43.183 -79.55,-54.363 -26.35,-10.891 -55.04,-16.301 -86.02,-16.301 -69.49,0 -129.6,26.887 -180.39,80.567 -50.72,54.035 -76.09,121.035 -76.09,201.132 0,82.981 24.56,151.047 73.63,204.075 49.1,53.058 108.71,79.568 178.91,79.568 32.3,0 62.62,-6.08 90.92,-18.26 28.34,-12.18 54.53,-30.469 78.59,-54.844 v 59.284" /><path
             id="path28"
             style="fill:#5a5c62;fill-opacity:1;fill-rule:nonzero;stroke:none"
             d="m 1924.99,1221.42 h 134.92 V 791.949 l 198.65,221.901 h 169.03 L 2196.32,755.875 2455.77,476.129 h -167.56 l -228.3,247.605 V 476.129 h -134.92 v 745.291" /><path
             id="path30"
             style="fill:#555658;fill-opacity:1;fill-rule:nonzero;stroke:none"
             d="m 293.023,521.188 -24.925,2.234 c 0.109,1.144 9.601,118.176 -47.606,243.73 -54.754,120.141 -118.191,145.684 -118.855,145.946 l 4.468,11.914 1.922,12.14 c 4.926,-0.769 122.469,-19.574 239.985,-72.109 117.363,-52.453 173.55,-93.008 175.859,-94.734 l -14.738,-20.2 c -0.559,0.403 -56.688,40.864 -171.356,92.11 -44.347,19.816 -89.316,34.804 -127.757,45.746 27.933,-16.508 59.824,-37.668 93.101,-64.211 107.352,-85.617 152.078,-222.449 153.922,-228.262 l -23.813,-7.637 c -0.437,1.321 -44.406,135.543 -145.718,216.325 -36.621,29.218 -71.742,51.793 -101.383,68.597 18.476,-23.047 38.328,-54.015 57.117,-95.226 60.113,-131.832 50.215,-251.356 49.777,-256.363" /><path
             id="path32"
             style="fill:#f79224;fill-opacity:1;fill-rule:nonzero;stroke:none"
             d="m 143.734,927.27 c 0,-20.512 -16.656,-37.172 -37.172,-37.172 -20.519,0 -37.1753,16.66 -37.1753,37.172 0,20.539 16.6563,37.179 37.1753,37.179 20.516,0 37.172,-16.64 37.172,-37.179 v 0" /><path
             id="path34"
             style="fill:#555658;fill-opacity:1;fill-rule:nonzero;stroke:none"
             d="m 311.301,996.668 c 0,-20.52 -16.668,-37.18 -37.18,-37.18 -20.516,0 -37.191,16.66 -37.191,37.18 0,20.512 16.675,37.172 37.191,37.172 20.512,0 37.18,-16.66 37.18,-37.172 v 0" /><path
             id="path36"
             style="fill:#555658;fill-opacity:1;fill-rule:nonzero;stroke:none"
             d="m 477.832,926.281 c 0,-20.535 -16.648,-37.176 -37.164,-37.176 -20.535,0 -37.191,16.641 -37.191,37.176 0,20.531 16.656,37.176 37.191,37.176 20.516,0 37.164,-16.645 37.164,-37.176 v 0" /><path
             id="path38"
             style="fill:#555658;fill-opacity:1;fill-rule:nonzero;stroke:none"
             d="m 547.25,759.73 c 0,-20.531 -16.676,-37.171 -37.207,-37.171 -20.492,0 -37.168,16.64 -37.168,37.171 0,20.52 16.676,37.176 37.168,37.176 20.531,0 37.207,-16.656 37.207,-37.176 v 0" /><path
             id="path40"
             style="fill:#555658;fill-opacity:1;fill-rule:nonzero;stroke:none"
             d="m 477.832,593.18 c 0,-20.528 -16.648,-37.18 -37.164,-37.18 -20.535,0 -37.191,16.652 -37.191,37.18 0,20.508 16.656,37.156 37.191,37.156 20.516,0 37.164,-16.648 37.164,-37.156 v 0" /><path
             id="path42"
             style="fill:#555658;fill-opacity:1;fill-rule:nonzero;stroke:none"
             d="m 311.301,523.773 c 0,-20.535 -16.668,-37.187 -37.18,-37.187 -20.516,0 -37.191,16.652 -37.191,37.187 0,20.528 16.675,37.2 37.191,37.2 20.512,0 37.18,-16.672 37.18,-37.2 v 0" /><path
             id="path44"
             style="fill:#555658;fill-opacity:1;fill-rule:nonzero;stroke:none"
             d="m 143.734,592.172 c 0,-20.504 -16.656,-37.168 -37.172,-37.168 -20.519,0 -37.1753,16.664 -37.1753,37.168 0,20.558 16.6563,37.187 37.1753,37.187 20.516,0 37.172,-16.629 37.172,-37.187 v 0" /><path
             id="path46"
             style="fill:#555658;fill-opacity:1;fill-rule:nonzero;stroke:none"
             d="m 74.3438,759.73 c 0,-20.531 -16.6602,-37.171 -37.1719,-37.171 C 16.6367,722.559 0,739.199 0,759.73 c 0,20.52 16.6367,37.176 37.1719,37.176 20.5117,0 37.1719,-16.656 37.1719,-37.176 v 0" /><path
             id="path48"
             style="fill:#f79224;fill-opacity:1;fill-rule:nonzero;stroke:none"
             d="M 656.855,374.184 H 831.148 V 329.586 H 704.766 V 251.891 H 806.367 V 208.59 H 704.766 V 132.98 H 831.148 V 88.3906 H 656.855 V 374.184" /><path
             id="path50"
             style="fill:#f79224;fill-opacity:1;fill-rule:nonzero;stroke:none"
             d="M 883.238,88.3906 V 294.488 h 47.09 v -10.343 c 0,0 30.145,15.293 52.836,15.293 54.106,0 70.216,-38.028 70.216,-103.278 V 88.3906 H 1006.3 V 195.77 c 0,35.082 -4.94,60.679 -32.218,60.679 -18.152,0 -43.754,-10.293 -43.754,-10.293 V 88.3906 h -47.09" /><path
             id="path52"
             style="fill:#f79224;fill-opacity:1;fill-rule:nonzero;stroke:none"
             d="m 1160.81,252.75 v -86.301 c 0,-28.109 5.79,-40.07 21.46,-40.07 11.58,0 31,1.25 31,1.25 l 2.03,-38.4298 c 0,0 -25.18,-5.7578 -39.63,-5.7578 -44.19,0 -61.94,22.2966 -61.94,77.6286 v 91.68 h -24.37 v 41.297 h 24.37 v 60.285 h 47.08 v -60.285 h 53.28 V 252.75 h -53.28" /><path
             id="path54"
             style="fill:#f79224;fill-opacity:1;fill-rule:nonzero;stroke:none"
             d="m 1368.56,207.73 c 0,34.286 -10.76,52.032 -39.23,52.032 -28.5,0 -40.08,-18.996 -40.45,-52.032 z m 38.83,-78.902 0.82,-35.0663 c 0,0 -38.83,-9.9414 -78.51,-9.9414 -63.98,0 -87.93,36.7497 -87.93,105.3517 0,69.379 30.16,110.266 87.56,110.266 57.83,0 85.88,-34.735 85.88,-94.208 l -3.31,-33.41 h -122.65 c 0.45,-27.261 11.95,-46.672 44.22,-46.672 29.31,0 73.92,3.68 73.92,3.68" /><path
             id="path56"
             style="fill:#f79224;fill-opacity:1;fill-rule:nonzero;stroke:none"
             d="m 1460.28,294.488 h 47.07 v -21.914 c 0,0 25.67,19.805 59.91,26.864 v -50.411 c -37.58,-7.441 -59.91,-19.816 -59.91,-19.816 V 88.3906 h -47.07 V 294.488" /><path
             id="path58"
             style="fill:#f79224;fill-opacity:1;fill-rule:nonzero;stroke:none"
             d="M 1655.26,245.297 V 128.441 c 1.64,-0.41 16.51,-3.293 32.58,-3.293 35.51,0 46.27,24.364 46.27,68.543 0,38.43 -11.95,63.18 -38.42,63.18 -18.16,0 -40.43,-11.574 -40.43,-11.574 z m -47.13,49.191 h 47.13 v -10.8 c 0,0 25.55,15.75 49.12,15.75 50.36,0 77.64,-33.477 77.64,-105.747 0,-82.57 -30.98,-109.8707 -90.86,-109.8707 -16.91,0 -33.85,2.918 -35.9,3.3203 V 0 h -47.13 v 294.488" /><path
             id="path60"
             style="fill:#f79224;fill-opacity:1;fill-rule:nonzero;stroke:none"
             d="m 1827.94,294.488 h 47.05 v -21.914 c 0,0 25.59,19.805 59.86,26.864 v -50.411 c -37.56,-7.441 -59.86,-19.816 -59.86,-19.816 V 88.3906 h -47.05 V 294.488" /><path
             id="path62"
             style="fill:#f79224;fill-opacity:1;fill-rule:nonzero;stroke:none"
             d="m 1972.49,294.488 h 47.05 V 88.3906 h -47.05 z m 0,80.086 h 47.05 v -49.156 h -47.05 v 49.156" /><path
             id="path64"
             style="fill:#f79224;fill-opacity:1;fill-rule:nonzero;stroke:none"
             d="m 2220.24,251.52 c 0,0 -50.8,6.562 -72.26,6.562 -21.08,0 -32.21,-7.422 -32.21,-22.707 0,-12.355 8.28,-16.055 40.86,-21.855 51.23,-9.52 70.66,-22.711 70.66,-63.571 0,-48.39 -33.02,-66.1287 -80.13,-66.1287 -29.32,0 -76.41,9.4883 -76.41,9.4883 l 1.66,38.4534 c 0,0 49.16,-6.614 70.2,-6.614 27.26,0 37.58,7 37.58,23.551 0,12.781 -6.22,16.492 -37.58,22.692 -46.25,9.519 -73.87,20.25 -73.87,62.781 0,47.062 37.95,65.266 75.94,65.266 30.13,0 76.38,-9.532 76.38,-9.532 l -0.82,-38.386" /><path
             id="path66"
             style="fill:#f79224;fill-opacity:1;fill-rule:nonzero;stroke:none"
             d="m 2392.49,207.73 c 0,34.286 -10.7,52.032 -39.24,52.032 -28.47,0 -40.04,-18.996 -40.47,-52.032 z m 38.85,-78.902 0.8,-35.0663 c 0,0 -38.83,-9.9414 -78.46,-9.9414 -63.94,0 -87.97,36.7497 -87.97,105.3517 0,69.379 30.14,110.266 87.54,110.266 57.83,0 85.9,-34.735 85.9,-94.208 l -3.3,-33.41 h -122.64 c 0.39,-27.261 12,-46.672 44.2,-46.672 29.3,0 73.93,3.68 73.93,3.68" /></g></g></g></g></svg>