<?xml version="1.0" encoding="UTF-8" standalone="no"?>
<svg
   xmlns:dc="http://purl.org/dc/elements/1.1/"
   xmlns:cc="http://creativecommons.org/ns#"
   xmlns:rdf="http://www.w3.org/1999/02/22-rdf-syntax-ns#"
   xmlns:svg="http://www.w3.org/2000/svg"
   xmlns="http://www.w3.org/2000/svg"
   viewBox="0 0 321.42667 161.67999"
   height="161.67999"
   width="321.42667"
   xml:space="preserve"
   id="svg2"
   version="1.1"><metadata
     id="metadata8"><rdf:RDF><cc:Work
         rdf:about=""><dc:format>image/svg+xml</dc:format><dc:type
           rdf:resource="http://purl.org/dc/dcmitype/StillImage" /></cc:Work></rdf:RDF></metadata><defs
     id="defs6"><clipPath
       id="clipPath20"
       clipPathUnits="userSpaceOnUse"><path
         id="path18"
         d="M 0,1212.58 V 0 h 2410.74 v 1212.58 z" /></clipPath></defs><g
     transform="matrix(1.3333333,0,0,-1.3333333,0,161.68)"
     id="g10"><g
       transform="scale(0.1)"
       id="g12"><g
         id="g14"><g
           clip-path="url(#clipPath20)"
           id="g16"><path
             id="path22"
             style="fill:#ffffff;fill-opacity:1;fill-rule:nonzero;stroke:none"
             d="m 644.82,995.266 h 113.52 v -66.461 c 12.297,26.183 28.629,46.086 49.039,59.664 20.355,13.571 42.641,20.351 66.906,20.351 17.153,0 35.11,-4.5 53.875,-13.554 L 886.891,881.242 c -15.524,7.774 -28.274,11.672 -38.278,11.672 -20.39,0 -37.699,-12.625 -51.925,-37.867 C 782.75,829.82 775.812,780.328 775.812,706.625 l 0.5,-25.73 V 467.402 H 644.82 v 527.864" /><path
             id="path24"
             style="fill:#ffffff;fill-opacity:1;fill-rule:nonzero;stroke:none"
             d="M 977.652,995.266 H 1110.55 V 467.402 H 977.652 v 527.864 m 66.438,217.314 c 23.3,0 43.17,-8.38 59.68,-25.2 16.83,-16.83 25.21,-37.2 25.21,-61.13 0,-23.62 -8.26,-43.82 -24.7,-60.65 -16.52,-16.5 -36.24,-24.74 -59.21,-24.74 -23.62,0 -43.83,8.41 -60.656,25.23 -16.48,17.14 -24.734,37.84 -24.734,62.11 0,23.28 8.254,43.16 24.734,59.66 16.536,16.5 36.406,24.72 59.676,24.72" /><path
             id="path26"
             style="fill:#ffffff;fill-opacity:1;fill-rule:nonzero;stroke:none"
             d="m 1481.7,886.598 c -41.09,0 -75.19,-14.567 -102.35,-43.664 -27.18,-28.797 -40.8,-65.832 -40.8,-111.102 0,-45.602 13.78,-83.117 41.26,-112.562 27.84,-29.407 61.97,-44.122 102.38,-44.122 41.7,0 76.32,14.356 103.8,43.149 27.49,29.117 41.27,67.144 41.27,114.039 0,45.883 -13.78,83.102 -41.27,111.566 -27.48,28.453 -62.25,42.696 -104.29,42.696 m 139.23,108.668 h 131.95 V 467.402 h -131.95 v 55.825 c -25.9,-24.59 -51.94,-42.395 -78.11,-53.372 -25.86,-10.691 -54.02,-15.996 -84.42,-15.996 -68.22,0 -127.25,26.387 -177.09,79.082 -49.8,53.047 -74.7,118.821 -74.7,197.446 0,81.461 24.11,148.277 72.29,200.332 48.19,52.086 106.72,78.101 175.61,78.101 31.73,0 61.48,-5.96 89.27,-17.922 27.81,-11.953 53.52,-29.906 77.15,-53.832 v 58.2" /><path
             id="path28"
             style="fill:#ffffff;fill-opacity:1;fill-rule:nonzero;stroke:none"
             d="m 1889.7,1199.02 h 132.44 V 777.43 l 195.02,217.836 h 165.91 L 2156.04,742.02 2410.74,467.402 H 2246.26 L 2022.14,710.465 V 467.402 H 1889.7 v 731.618" /><path
             id="path30"
             style="fill:#ffffff;fill-opacity:1;fill-rule:nonzero;stroke:none"
             d="m 287.652,511.633 -24.468,2.199 c 0.105,1.121 9.429,116.004 -46.735,239.258 -53.75,117.933 -116.023,143.012 -116.6717,143.265 l 4.3827,11.7 1.891,11.918 c 4.832,-0.758 120.222,-19.219 235.582,-70.785 115.207,-51.497 170.363,-91.305 172.637,-93 l -14.481,-19.833 c -0.543,0.399 -55.641,40.118 -168.203,90.418 -43.539,19.457 -87.68,34.172 -125.414,44.915 27.422,-16.208 58.726,-36.977 91.39,-63.036 105.387,-84.05 149.293,-218.367 151.094,-224.07 l -23.367,-7.5 c -0.43,1.289 -43.594,133.059 -143.047,212.352 -35.953,28.687 -70.426,50.847 -99.527,67.343 18.14,-22.625 37.629,-53.023 56.074,-93.484 59.008,-129.418 49.293,-246.738 48.863,-251.66" /><path
             id="path32"
             style="fill:#f79224;fill-opacity:1;fill-rule:nonzero;stroke:none"
             d="m 141.105,910.27 c 0,-20.137 -16.355,-36.489 -36.496,-36.489 -20.1402,0 -36.4957,16.352 -36.4957,36.489 0,20.164 16.3555,36.496 36.4957,36.496 20.141,0 36.496,-16.332 36.496,-36.496 v 0" /><path
             id="path34"
             style="fill:#ffffff;fill-opacity:1;fill-rule:nonzero;stroke:none"
             d="m 305.59,978.391 c 0,-20.141 -16.356,-36.496 -36.492,-36.496 -20.145,0 -36.508,16.355 -36.508,36.496 0,20.136 16.363,36.489 36.508,36.489 20.136,0 36.492,-16.353 36.492,-36.489 v 0" /><path
             id="path36"
             style="fill:#ffffff;fill-opacity:1;fill-rule:nonzero;stroke:none"
             d="m 469.066,909.301 c 0,-20.16 -16.336,-36.496 -36.472,-36.496 -20.16,0 -36.516,16.336 -36.516,36.496 0,20.156 16.356,36.492 36.516,36.492 20.136,0 36.472,-16.336 36.472,-36.492 v 0" /><path
             id="path38"
             style="fill:#ffffff;fill-opacity:1;fill-rule:nonzero;stroke:none"
             d="m 537.219,745.805 c 0,-20.16 -16.367,-36.493 -36.531,-36.493 -20.118,0 -36.473,16.333 -36.473,36.493 0,20.14 16.355,36.492 36.473,36.492 20.164,0 36.531,-16.352 36.531,-36.492 v 0" /><path
             id="path40"
             style="fill:#ffffff;fill-opacity:1;fill-rule:nonzero;stroke:none"
             d="m 469.066,582.309 c 0,-20.161 -16.336,-36.497 -36.472,-36.497 -20.16,0 -36.516,16.336 -36.516,36.497 0,20.121 16.356,36.472 36.516,36.472 20.136,0 36.472,-16.351 36.472,-36.472 v 0" /><path
             id="path42"
             style="fill:#ffffff;fill-opacity:1;fill-rule:nonzero;stroke:none"
             d="m 305.59,514.172 c 0,-20.156 -16.356,-36.504 -36.492,-36.504 -20.145,0 -36.508,16.348 -36.508,36.504 0,20.156 16.363,36.512 36.508,36.512 20.136,0 36.492,-16.356 36.492,-36.512 v 0" /><path
             id="path44"
             style="fill:#ffffff;fill-opacity:1;fill-rule:nonzero;stroke:none"
             d="m 141.105,581.32 c 0,-20.136 -16.355,-36.484 -36.496,-36.484 -20.1402,0 -36.4957,16.348 -36.4957,36.484 0,20.172 16.3555,36.508 36.4957,36.508 20.141,0 36.496,-16.336 36.496,-36.508 v 0" /><path
             id="path46"
             style="fill:#ffffff;fill-opacity:1;fill-rule:nonzero;stroke:none"
             d="m 72.9844,745.805 c 0,-20.16 -16.3516,-36.493 -36.4922,-36.493 C 16.332,709.312 0,725.645 0,745.805 c 0,20.14 16.332,36.492 36.4922,36.492 20.1406,0 36.4922,-16.352 36.4922,-36.492 v 0" /><path
             id="path48"
             style="fill:#f79224;fill-opacity:1;fill-rule:nonzero;stroke:none"
             d="m 644.82,367.324 h 171.082 v -43.777 h -124.05 v -76.27 h 99.73 V 204.77 h -99.73 v -74.219 h 124.05 V 86.7812 H 644.82 V 367.324" /><path
             id="path50"
             style="fill:#f79224;fill-opacity:1;fill-rule:nonzero;stroke:none"
             d="M 867.043,86.7812 V 289.094 h 46.223 v -10.156 c 0,0 29.589,15.007 51.871,15.007 53.113,0 68.923,-37.32 68.923,-101.386 V 86.7812 H 987.852 V 192.18 c 0,34.445 -4.86,59.57 -31.625,59.57 -17.829,0 -42.961,-10.098 -42.961,-10.098 V 86.7812 h -46.223" /><path
             id="path52"
             style="fill:#f79224;fill-opacity:1;fill-rule:nonzero;stroke:none"
             d="m 1139.52,248.117 v -84.719 c 0,-27.597 5.68,-39.339 21.07,-39.339 11.37,0 30.44,1.23 30.44,1.23 l 1.99,-37.7187 c 0,0 -24.72,-5.6484 -38.9,-5.6484 -43.38,0 -60.81,21.8791 -60.81,76.1991 v 89.996 h -23.92 v 40.547 h 23.92 v 59.172 h 46.21 v -59.172 h 52.31 v -40.547 h -52.31" /><path
             id="path54"
             style="fill:#f79224;fill-opacity:1;fill-rule:nonzero;stroke:none"
             d="m 1343.48,203.93 c 0,33.652 -10.57,51.074 -38.53,51.074 -27.97,0 -39.33,-18.645 -39.71,-51.074 z m 38.1,-77.45 0.8,-34.4409 c 0,0 -38.1,-9.75 -77.06,-9.75 -62.81,0 -86.32,36.0699 -86.32,103.4099 0,68.11 29.61,108.246 85.95,108.246 56.77,0 84.3,-34.09 84.3,-92.476 l -3.24,-32.797 h -120.39 c 0.42,-26.762 11.72,-45.813 43.39,-45.813 28.78,0 72.57,3.621 72.57,3.621" /><path
             id="path56"
             style="fill:#f79224;fill-opacity:1;fill-rule:nonzero;stroke:none"
             d="m 1433.51,289.094 h 46.21 v -21.512 c 0,0 25.18,19.441 58.8,26.363 v -49.48 c -36.89,-7.305 -58.8,-19.453 -58.8,-19.453 V 86.7812 h -46.21 V 289.094" /><path
             id="path58"
             style="fill:#f79224;fill-opacity:1;fill-rule:nonzero;stroke:none"
             d="M 1624.91,240.805 V 126.102 c 1.6,-0.411 16.19,-3.243 31.98,-3.243 34.87,0 45.42,23.911 45.42,67.282 0,37.734 -11.72,62.019 -37.71,62.019 -17.83,0 -39.69,-11.355 -39.69,-11.355 z m -46.27,48.289 h 46.27 v -10.606 c 0,0 25.08,15.457 48.22,15.457 49.43,0 76.22,-32.859 76.22,-103.804 0,-81.059 -30.4,-107.8519 -89.2,-107.8519 -16.6,0 -33.23,2.8711 -35.24,3.2617 V 0 h -46.27 v 289.094" /><path
             id="path60"
             style="fill:#f79224;fill-opacity:1;fill-rule:nonzero;stroke:none"
             d="m 1794.41,289.094 h 46.2 v -21.512 c 0,0 25.11,19.441 58.77,26.363 v -49.48 c -36.87,-7.305 -58.77,-19.453 -58.77,-19.453 V 86.7812 h -46.2 V 289.094" /><path
             id="path62"
             style="fill:#f79224;fill-opacity:1;fill-rule:nonzero;stroke:none"
             d="m 1936.32,289.094 h 46.19 V 86.7812 h -46.19 z m 0,78.613 h 46.19 v -48.25 h -46.19 v 48.25" /><path
             id="path64"
             style="fill:#f79224;fill-opacity:1;fill-rule:nonzero;stroke:none"
             d="m 2179.53,246.906 c 0,0 -49.87,6.446 -70.94,6.446 -20.68,0 -31.61,-7.286 -31.61,-22.286 0,-12.128 8.13,-15.761 40.11,-21.457 50.28,-9.339 69.37,-22.3 69.37,-62.41 0,-47.4998 -32.44,-64.9099 -78.67,-64.9099 -28.79,0 -75.01,9.3125 -75.01,9.3125 l 1.62,37.7504 c 0,0 48.28,-6.493 68.92,-6.493 26.76,0 36.89,6.879 36.89,23.121 0,12.551 -6.1,16.192 -36.89,22.27 -45.4,9.352 -72.52,19.879 -72.52,61.625 0,46.211 37.26,64.07 74.54,64.07 29.6,0 75,-9.351 75,-9.351 l -0.81,-37.688" /><path
             id="path66"
             style="fill:#f79224;fill-opacity:1;fill-rule:nonzero;stroke:none"
             d="m 2348.61,203.93 c 0,33.652 -10.49,51.074 -38.5,51.074 -27.96,0 -39.32,-18.645 -39.73,-51.074 z m 38.15,-77.45 0.78,-34.4409 c 0,0 -38.11,-9.75 -77.01,-9.75 -62.79,0 -86.36,36.0699 -86.36,103.4099 0,68.11 29.58,108.246 85.94,108.246 56.76,0 84.31,-34.09 84.31,-92.476 l -3.23,-32.797 h -120.4 c 0.39,-26.762 11.77,-45.813 43.4,-45.813 28.75,0 72.57,3.621 72.57,3.621" /></g></g></g></g></svg>